<svg width="50" height="50" viewBox="0 0 50 50" fill="none" xmlns="http://www.w3.org/2000/svg">
<g clip-path="url(#clip0)">
<g opacity="0.1">
</g>
<path d="M40.5147 35.864C39.7163 34.9797 39.0392 33.993 38.501 32.93C37.651 31.2638 36.476 29.7846 35.0454 28.5796C33.6147 27.3746 31.9574 26.4681 30.171 25.9135C28.6089 25.4306 26.9743 25.2256 25.3413 25.3079C26.5299 25.24 27.7002 25.6237 28.6176 26.3823C29.5352 27.1408 30.1322 28.218 30.289 29.3982C30.7187 31.9481 31.8488 34.3283 33.5532 36.2729C35.2575 38.2176 37.469 39.6501 39.9405 40.4105C42.7667 41.2791 45.7951 41.2323 48.5931 40.2768C45.4764 39.7685 42.6266 38.2118 40.5147 35.864Z" fill="#7619D2"/>
<path d="M20.3462 25.4651C20.7093 27.0607 21.3482 28.5806 22.234 29.9566C21.5872 28.9575 21.3382 27.7522 21.5363 26.5786C21.7343 25.405 22.365 24.3482 23.3038 23.6166C25.2977 21.9673 26.7947 19.7968 27.628 17.347C28.4612 14.8971 28.5981 12.2641 28.0233 9.74107C27.3672 6.85482 25.811 4.25181 23.5791 2.30774C24.6902 5.27801 24.7541 8.53869 23.76 11.5502C23.3794 12.6872 22.8504 13.7689 22.1868 14.7674C21.1678 16.336 20.4737 18.093 20.1453 19.9345C19.817 21.776 19.8612 23.6646 20.2754 25.4887L20.3462 25.4651Z" fill="#7619D2"/>
<path d="M27.8582 30.2791C27.3231 31.343 26.4055 32.1654 25.2895 32.5811C24.1736 32.9969 22.9416 32.9753 21.8407 32.5209C19.4148 31.6117 16.7838 31.3951 14.2418 31.8951C11.6998 32.3952 9.34692 33.5923 7.44611 35.3526C5.2788 37.3688 3.80786 40.0213 3.24561 42.9275C5.26236 40.4795 8.05375 38.7924 11.1588 38.145C12.3253 37.9063 13.517 37.8138 14.7063 37.8697C16.5719 37.9664 18.4378 37.6883 20.1942 37.052C21.9504 36.4157 23.5614 35.434 24.9321 34.1648C26.1316 33.0509 27.1272 31.7358 27.8739 30.2791H27.8582Z" fill="#7619D2"/>
</g>
<defs>
<clipPath id="clip0">
<rect width="50" height="50" fill="white"/>
</clipPath>
</defs>
</svg>
