<svg width="209" height="42" viewBox="0 0 209 42" fill="none" xmlns="http://www.w3.org/2000/svg">
<path d="M13.3301 7.40625L21.6973 28.2891L30.0645 7.40625H34.4414V33H31.0664V23.0332L31.3828 12.2754L22.9805 33H20.3965L12.0117 12.3281L12.3457 23.0332V33H8.9707V7.40625H13.3301ZM53.4328 33C53.2453 32.625 53.093 31.957 52.9758 30.9961C51.4641 32.5664 49.6594 33.3516 47.5617 33.3516C45.6867 33.3516 44.1457 32.8242 42.9387 31.7695C41.7434 30.7031 41.1457 29.3555 41.1457 27.7266C41.1457 25.7461 41.8957 24.2109 43.3957 23.1211C44.9074 22.0195 47.0285 21.4688 49.759 21.4688H52.923V19.9746C52.923 18.8379 52.5832 17.9355 51.9035 17.2676C51.2238 16.5879 50.2219 16.248 48.8977 16.248C47.7375 16.248 46.7648 16.541 45.9797 17.127C45.1945 17.7129 44.802 18.4219 44.802 19.2539H41.5324C41.5324 18.3047 41.8664 17.3906 42.5344 16.5117C43.2141 15.6211 44.1281 14.918 45.2766 14.4023C46.4367 13.8867 47.7082 13.6289 49.091 13.6289C51.2824 13.6289 52.9992 14.1797 54.2414 15.2812C55.4836 16.3711 56.1281 17.877 56.175 19.7988V28.5527C56.175 30.2988 56.3977 31.6875 56.843 32.7188V33H53.4328ZM48.0363 30.5215C49.0559 30.5215 50.0227 30.2578 50.9367 29.7305C51.8508 29.2031 52.5129 28.5176 52.923 27.6738V23.7715H50.3742C46.3898 23.7715 44.3977 24.9375 44.3977 27.2695C44.3977 28.2891 44.7375 29.0859 45.4172 29.6602C46.0969 30.2344 46.9699 30.5215 48.0363 30.5215ZM72.266 16.8984C71.7738 16.8164 71.2406 16.7754 70.6664 16.7754C68.5336 16.7754 67.0863 17.6836 66.3246 19.5V33H63.0727V13.9805H66.2367L66.2895 16.1777C67.3559 14.4785 68.8676 13.6289 70.8246 13.6289C71.4574 13.6289 71.9379 13.7109 72.266 13.875V16.8984ZM82.3805 24.1934L80.3414 26.3203V33H77.0895V6H80.3414V22.3301L82.0816 20.2383L88.0055 13.9805H91.9605L84.5602 21.9258L92.8219 33H89.0074L82.3805 24.1934ZM104.659 33.3516C102.081 33.3516 99.9832 32.5078 98.366 30.8203C96.7488 29.1211 95.9402 26.8535 95.9402 24.0176V23.4199C95.9402 21.5332 96.2977 19.8516 97.0125 18.375C97.7391 16.8867 98.7469 15.7266 100.036 14.8945C101.337 14.0508 102.743 13.6289 104.255 13.6289C106.727 13.6289 108.649 14.4434 110.02 16.0723C111.391 17.7012 112.077 20.0332 112.077 23.0684V24.4219H99.1922C99.2391 26.2969 99.784 27.8145 100.827 28.9746C101.882 30.123 103.218 30.6973 104.835 30.6973C105.983 30.6973 106.956 30.4629 107.753 29.9941C108.55 29.5254 109.247 28.9043 109.845 28.1309L111.831 29.6777C110.237 32.127 107.846 33.3516 104.659 33.3516ZM104.255 16.3008C102.942 16.3008 101.841 16.7812 100.95 17.7422C100.059 18.6914 99.5086 20.0273 99.2977 21.75H108.825V21.5039C108.731 19.8516 108.286 18.5742 107.489 17.6719C106.692 16.7578 105.614 16.3008 104.255 16.3008ZM122.068 9.375V13.9805H125.619V16.4941H122.068V28.2891C122.068 29.0508 122.227 29.625 122.543 30.0117C122.859 30.3867 123.398 30.5742 124.16 30.5742C124.535 30.5742 125.051 30.5039 125.707 30.3633V33C124.852 33.2344 124.02 33.3516 123.211 33.3516C121.758 33.3516 120.662 32.9121 119.924 32.0332C119.186 31.1543 118.816 29.9062 118.816 28.2891V16.4941H115.354V13.9805H118.816V9.375H122.068ZM145.859 21.6973H135.118V33H131.743V7.40625H147.599V10.1836H135.118V18.9375H145.859V21.6973ZM164.077 33C163.889 32.625 163.737 31.957 163.62 30.9961C162.108 32.5664 160.303 33.3516 158.205 33.3516C156.33 33.3516 154.789 32.8242 153.582 31.7695C152.387 30.7031 151.789 29.3555 151.789 27.7266C151.789 25.7461 152.539 24.2109 154.039 23.1211C155.551 22.0195 157.672 21.4688 160.403 21.4688H163.567V19.9746C163.567 18.8379 163.227 17.9355 162.547 17.2676C161.868 16.5879 160.866 16.248 159.541 16.248C158.381 16.248 157.409 16.541 156.623 17.127C155.838 17.7129 155.446 18.4219 155.446 19.2539H152.176C152.176 18.3047 152.51 17.3906 153.178 16.5117C153.858 15.6211 154.772 14.918 155.92 14.4023C157.08 13.8867 158.352 13.6289 159.735 13.6289C161.926 13.6289 163.643 14.1797 164.885 15.2812C166.127 16.3711 166.772 17.877 166.819 19.7988V28.5527C166.819 30.2988 167.041 31.6875 167.487 32.7188V33H164.077ZM158.68 30.5215C159.7 30.5215 160.666 30.2578 161.58 29.7305C162.495 29.2031 163.157 28.5176 163.567 27.6738V23.7715H161.018C157.034 23.7715 155.041 24.9375 155.041 27.2695C155.041 28.2891 155.381 29.0859 156.061 29.6602C156.741 30.2344 157.614 30.5215 158.68 30.5215ZM184.791 27.9551C184.791 27.0762 184.457 26.3965 183.789 25.916C183.132 25.4238 181.978 25.002 180.326 24.6504C178.685 24.2988 177.379 23.877 176.406 23.3848C175.445 22.8926 174.73 22.3066 174.261 21.627C173.804 20.9473 173.576 20.1387 173.576 19.2012C173.576 17.6426 174.232 16.3242 175.545 15.2461C176.869 14.168 178.556 13.6289 180.607 13.6289C182.763 13.6289 184.509 14.1855 185.845 15.2988C187.193 16.4121 187.867 17.8359 187.867 19.5703H184.597C184.597 18.6797 184.216 17.9121 183.455 17.2676C182.705 16.623 181.755 16.3008 180.607 16.3008C179.423 16.3008 178.498 16.5586 177.83 17.0742C177.162 17.5898 176.828 18.2637 176.828 19.0957C176.828 19.8809 177.138 20.4727 177.759 20.8711C178.38 21.2695 179.5 21.6504 181.117 22.0137C182.746 22.377 184.064 22.8105 185.072 23.3145C186.08 23.8184 186.824 24.4277 187.304 25.1426C187.796 25.8457 188.043 26.707 188.043 27.7266C188.043 29.4258 187.363 30.791 186.004 31.8223C184.644 32.8418 182.88 33.3516 180.712 33.3516C179.189 33.3516 177.841 33.082 176.67 32.543C175.498 32.0039 174.578 31.2539 173.91 30.293C173.254 29.3203 172.925 28.2715 172.925 27.1465H176.177C176.236 28.2363 176.67 29.1035 177.478 29.748C178.298 30.3809 179.377 30.6973 180.712 30.6973C181.943 30.6973 182.927 30.4512 183.666 29.959C184.416 29.4551 184.791 28.7871 184.791 27.9551ZM198.491 9.375V13.9805H202.042V16.4941H198.491V28.2891C198.491 29.0508 198.649 29.625 198.966 30.0117C199.282 30.3867 199.821 30.5742 200.583 30.5742C200.958 30.5742 201.473 30.5039 202.13 30.3633V33C201.274 33.2344 200.442 33.3516 199.634 33.3516C198.18 33.3516 197.085 32.9121 196.346 32.0332C195.608 31.1543 195.239 29.9062 195.239 28.2891V16.4941H191.776V13.9805H195.239V9.375H198.491Z" fill="#7619D2"/>
</svg>
