<svg width="203" height="203" viewBox="0 0 203 203" fill="none" xmlns="http://www.w3.org/2000/svg">
<g opacity="0.1">
<path opacity="0.1" d="M201.984 197.241V201.984H197.241" stroke="#7619D2" stroke-miterlimit="10"/>
<path opacity="0.1" d="M188.134 201.984H10.2966" stroke="#7619D2" stroke-miterlimit="10" stroke-dasharray="5.77 5.77"/>
<path opacity="0.1" d="M5.74318 201.984H1V197.241" stroke="#7619D2" stroke-miterlimit="10"/>
<path opacity="0.1" d="M1 188.118V10.2966" stroke="#7619D2" stroke-miterlimit="10" stroke-dasharray="5.77 5.77"/>
<path opacity="0.1" d="M1 5.74318V1H5.74318" stroke="#7619D2" stroke-miterlimit="10"/>
<path opacity="0.1" d="M14.8659 1H192.688" stroke="#7619D2" stroke-miterlimit="10" stroke-dasharray="5.77 5.77"/>
<path opacity="0.1" d="M197.241 1H201.984V5.74318" stroke="#7619D2" stroke-miterlimit="10"/>
<path opacity="0.1" d="M201.984 14.8501V192.688" stroke="#7619D2" stroke-miterlimit="10" stroke-dasharray="5.77 5.77"/>
</g>
<path d="M134.694 113.287C133.09 111.509 131.728 109.526 130.647 107.389C128.938 104.04 126.576 101.067 123.701 98.6451C120.825 96.223 117.494 94.4009 113.903 93.2862C110.764 92.3155 107.478 91.9034 104.196 92.0688C106.585 91.9324 108.937 92.7036 110.781 94.2284C112.625 95.753 113.825 97.9183 114.141 100.29C115.004 105.416 117.276 110.2 120.702 114.109C124.127 118.017 128.572 120.897 133.54 122.425C139.221 124.171 145.308 124.077 150.932 122.156C144.667 121.135 138.939 118.006 134.694 113.287Z" fill="#7619D2"/>
<path d="M94.1558 92.385C94.8858 95.592 96.1699 98.6471 97.9504 101.413C96.6503 99.4046 96.1499 96.9821 96.548 94.6232C96.9459 92.2641 98.2136 90.1399 100.101 88.6695C104.108 85.3544 107.117 80.9918 108.792 76.0675C110.467 71.1433 110.742 65.8509 109.587 60.7797C108.268 54.9783 105.14 49.7462 100.654 45.8387C102.887 51.8089 103.016 58.3629 101.018 64.4161C100.253 66.7014 99.1894 68.8756 97.8555 70.8826C95.8074 74.0354 94.4121 77.567 93.7522 81.2684C93.0923 84.9699 93.1811 88.766 94.0135 92.4325L94.1558 92.385Z" fill="#7619D2"/>
<path d="M109.255 102.061C108.179 104.2 106.335 105.853 104.092 106.688C101.849 107.524 99.3725 107.481 97.1598 106.567C92.2837 104.74 86.9954 104.304 81.886 105.309C76.7765 106.314 72.0472 108.721 68.2266 112.259C63.8703 116.312 60.9137 121.643 59.7836 127.485C63.8373 122.564 69.448 119.173 75.689 117.872C78.0338 117.392 80.4291 117.206 82.8196 117.318C86.5694 117.513 90.32 116.954 93.8502 115.675C97.3802 114.396 100.618 112.423 103.373 109.872C105.785 107.632 107.786 104.989 109.287 102.061H109.255Z" fill="#7619D2"/>
</svg>
