<svg width="200" height="200" viewBox="0 0 200 200" fill="none" xmlns="http://www.w3.org/2000/svg">
<g clip-path="url(#clip0)">
<path d="M9.33008 108.406L17.6973 129.289L26.0645 108.406H30.4414V134H27.0664V124.033L27.3828 113.275L18.9805 134H16.3965L8.01172 113.328L8.3457 124.033V134H4.9707V108.406H9.33008ZM49.4328 134C49.2453 133.625 49.093 132.957 48.9758 131.996C47.4641 133.566 45.6594 134.352 43.5617 134.352C41.6867 134.352 40.1457 133.824 38.9387 132.77C37.7434 131.703 37.1457 130.355 37.1457 128.727C37.1457 126.746 37.8957 125.211 39.3957 124.121C40.9074 123.02 43.0285 122.469 45.759 122.469H48.923V120.975C48.923 119.838 48.5832 118.936 47.9035 118.268C47.2238 117.588 46.2219 117.248 44.8977 117.248C43.7375 117.248 42.7648 117.541 41.9797 118.127C41.1945 118.713 40.802 119.422 40.802 120.254H37.5324C37.5324 119.305 37.8664 118.391 38.5344 117.512C39.2141 116.621 40.1281 115.918 41.2766 115.402C42.4367 114.887 43.7082 114.629 45.091 114.629C47.2824 114.629 48.9992 115.18 50.2414 116.281C51.4836 117.371 52.1281 118.877 52.175 120.799V129.553C52.175 131.299 52.3977 132.688 52.843 133.719V134H49.4328ZM44.0363 131.521C45.0559 131.521 46.0227 131.258 46.9367 130.73C47.8508 130.203 48.5129 129.518 48.923 128.674V124.771H46.3742C42.3898 124.771 40.3977 125.938 40.3977 128.27C40.3977 129.289 40.7375 130.086 41.4172 130.66C42.0969 131.234 42.9699 131.521 44.0363 131.521ZM68.266 117.898C67.7738 117.816 67.2406 117.775 66.6664 117.775C64.5336 117.775 63.0863 118.684 62.3246 120.5V134H59.0727V114.98H62.2367L62.2895 117.178C63.3559 115.479 64.8676 114.629 66.8246 114.629C67.4574 114.629 67.9379 114.711 68.266 114.875V117.898ZM78.3805 125.193L76.3414 127.32V134H73.0895V107H76.3414V123.33L78.0816 121.238L84.0055 114.98H87.9605L80.5602 122.926L88.8219 134H85.0074L78.3805 125.193ZM100.659 134.352C98.0809 134.352 95.9832 133.508 94.366 131.82C92.7488 130.121 91.9402 127.854 91.9402 125.018V124.42C91.9402 122.533 92.2977 120.852 93.0125 119.375C93.7391 117.887 94.7469 116.727 96.0359 115.895C97.3367 115.051 98.743 114.629 100.255 114.629C102.727 114.629 104.649 115.443 106.02 117.072C107.391 118.701 108.077 121.033 108.077 124.068V125.422H95.1922C95.2391 127.297 95.784 128.814 96.827 129.975C97.8816 131.123 99.2176 131.697 100.835 131.697C101.983 131.697 102.956 131.463 103.753 130.994C104.55 130.525 105.247 129.904 105.845 129.131L107.831 130.678C106.237 133.127 103.846 134.352 100.659 134.352ZM100.255 117.301C98.9422 117.301 97.8406 117.781 96.95 118.742C96.0594 119.691 95.5086 121.027 95.2977 122.75H104.825V122.504C104.731 120.852 104.286 119.574 103.489 118.672C102.692 117.758 101.614 117.301 100.255 117.301ZM118.068 110.375V114.98H121.619V117.494H118.068V129.289C118.068 130.051 118.227 130.625 118.543 131.012C118.859 131.387 119.398 131.574 120.16 131.574C120.535 131.574 121.051 131.504 121.707 131.363V134C120.852 134.234 120.02 134.352 119.211 134.352C117.758 134.352 116.662 133.912 115.924 133.033C115.186 132.154 114.816 130.906 114.816 129.289V117.494H111.354V114.98H114.816V110.375H118.068ZM141.859 122.697H131.118V134H127.743V108.406H143.599V111.184H131.118V119.938H141.859V122.697ZM160.077 134C159.889 133.625 159.737 132.957 159.62 131.996C158.108 133.566 156.303 134.352 154.205 134.352C152.33 134.352 150.789 133.824 149.582 132.77C148.387 131.703 147.789 130.355 147.789 128.727C147.789 126.746 148.539 125.211 150.039 124.121C151.551 123.02 153.672 122.469 156.403 122.469H159.567V120.975C159.567 119.838 159.227 118.936 158.547 118.268C157.868 117.588 156.866 117.248 155.541 117.248C154.381 117.248 153.409 117.541 152.623 118.127C151.838 118.713 151.446 119.422 151.446 120.254H148.176C148.176 119.305 148.51 118.391 149.178 117.512C149.858 116.621 150.772 115.918 151.92 115.402C153.08 114.887 154.352 114.629 155.735 114.629C157.926 114.629 159.643 115.18 160.885 116.281C162.127 117.371 162.772 118.877 162.819 120.799V129.553C162.819 131.299 163.041 132.688 163.487 133.719V134H160.077ZM154.68 131.521C155.7 131.521 156.666 131.258 157.58 130.73C158.495 130.203 159.157 129.518 159.567 128.674V124.771H157.018C153.034 124.771 151.041 125.938 151.041 128.27C151.041 129.289 151.381 130.086 152.061 130.66C152.741 131.234 153.614 131.521 154.68 131.521ZM180.791 128.955C180.791 128.076 180.457 127.396 179.789 126.916C179.132 126.424 177.978 126.002 176.326 125.65C174.685 125.299 173.379 124.877 172.406 124.385C171.445 123.893 170.73 123.307 170.261 122.627C169.804 121.947 169.576 121.139 169.576 120.201C169.576 118.643 170.232 117.324 171.545 116.246C172.869 115.168 174.556 114.629 176.607 114.629C178.763 114.629 180.509 115.186 181.845 116.299C183.193 117.412 183.867 118.836 183.867 120.57H180.597C180.597 119.68 180.216 118.912 179.455 118.268C178.705 117.623 177.755 117.301 176.607 117.301C175.423 117.301 174.498 117.559 173.83 118.074C173.162 118.59 172.828 119.264 172.828 120.096C172.828 120.881 173.138 121.473 173.759 121.871C174.38 122.27 175.5 122.65 177.117 123.014C178.746 123.377 180.064 123.811 181.072 124.314C182.08 124.818 182.824 125.428 183.304 126.143C183.796 126.846 184.043 127.707 184.043 128.727C184.043 130.426 183.363 131.791 182.004 132.822C180.644 133.842 178.88 134.352 176.712 134.352C175.189 134.352 173.841 134.082 172.67 133.543C171.498 133.004 170.578 132.254 169.91 131.293C169.254 130.32 168.925 129.271 168.925 128.146H172.177C172.236 129.236 172.67 130.104 173.478 130.748C174.298 131.381 175.377 131.697 176.712 131.697C177.943 131.697 178.927 131.451 179.666 130.959C180.416 130.455 180.791 129.787 180.791 128.955ZM194.491 110.375V114.98H198.042V117.494H194.491V129.289C194.491 130.051 194.649 130.625 194.966 131.012C195.282 131.387 195.821 131.574 196.583 131.574C196.958 131.574 197.473 131.504 198.13 131.363V134C197.274 134.234 196.442 134.352 195.634 134.352C194.18 134.352 193.085 133.912 192.346 133.033C191.608 132.154 191.239 130.906 191.239 129.289V117.494H187.776V114.98H191.239V110.375H194.491Z" fill="#7619D2"/>
<path d="M39.6445 147.662V146.891H34.3711V147.662H36.5684V154H37.4473V147.662H39.6445ZM44.3369 154H45.1572V148.717H44.249V152.506C44.2002 152.62 44.1383 152.726 44.0635 152.823C43.9919 152.918 43.9072 152.999 43.8096 153.067C43.6924 153.152 43.554 153.219 43.3945 153.268C43.235 153.313 43.0544 153.336 42.8525 153.336C42.68 153.336 42.527 153.313 42.3936 153.268C42.2633 153.222 42.1527 153.142 42.0615 153.028C41.9704 152.918 41.902 152.768 41.8564 152.579C41.8109 152.39 41.7881 152.153 41.7881 151.866V148.717H40.8848V151.856C40.8848 152.25 40.9271 152.589 41.0117 152.872C41.0996 153.152 41.2233 153.383 41.3828 153.565C41.5423 153.748 41.7344 153.883 41.959 153.971C42.1836 154.055 42.4342 154.098 42.7109 154.098C43.056 154.098 43.3604 154.026 43.624 153.883C43.8877 153.736 44.1074 153.533 44.2832 153.272L44.3369 154ZM50.3721 152.599C50.3721 152.683 50.3558 152.763 50.3232 152.838C50.2907 152.913 50.2435 152.981 50.1816 153.043C50.0807 153.144 49.9408 153.224 49.7617 153.282C49.5827 153.338 49.3727 153.365 49.1318 153.365C48.9788 153.365 48.8242 153.349 48.668 153.316C48.5117 153.284 48.3701 153.229 48.2432 153.15C48.113 153.072 48.0039 152.97 47.916 152.843C47.8314 152.716 47.7826 152.56 47.7695 152.374H46.8662C46.8662 152.599 46.9167 152.815 47.0176 153.023C47.1217 153.232 47.2715 153.414 47.4668 153.57C47.6589 153.73 47.8949 153.858 48.1748 153.956C48.4548 154.05 48.7738 154.098 49.1318 154.098C49.4443 154.098 49.7324 154.06 49.9961 153.985C50.2598 153.91 50.486 153.805 50.6748 153.668C50.8636 153.531 51.0101 153.367 51.1143 153.175C51.2217 152.983 51.2754 152.77 51.2754 152.535C51.2754 152.317 51.2282 152.125 51.1338 151.959C51.0426 151.793 50.9092 151.646 50.7334 151.52C50.5576 151.396 50.3411 151.29 50.084 151.202C49.8268 151.111 49.5355 151.031 49.21 150.963C48.9626 150.914 48.7575 150.864 48.5947 150.812C48.4352 150.759 48.3083 150.701 48.2139 150.636C48.1162 150.571 48.0479 150.497 48.0088 150.416C47.9697 150.335 47.9502 150.242 47.9502 150.138C47.9502 150.037 47.9746 149.939 48.0234 149.845C48.0723 149.75 48.1455 149.667 48.2432 149.596C48.3376 149.524 48.4564 149.467 48.5996 149.425C48.7461 149.382 48.9154 149.361 49.1074 149.361C49.293 149.361 49.459 149.387 49.6055 149.439C49.7552 149.492 49.8822 149.56 49.9863 149.645C50.0905 149.729 50.1719 149.827 50.2305 149.938C50.2891 150.045 50.3184 150.156 50.3184 150.27H51.2217C51.2217 150.038 51.1712 149.824 51.0703 149.625C50.9727 149.423 50.8327 149.247 50.6504 149.098C50.4681 148.948 50.2467 148.831 49.9863 148.746C49.7259 148.661 49.4329 148.619 49.1074 148.619C48.8047 148.619 48.5264 148.66 48.2725 148.741C48.0218 148.823 47.8053 148.933 47.623 149.073C47.4408 149.213 47.2992 149.378 47.1982 149.566C47.0973 149.752 47.0469 149.952 47.0469 150.167C47.0469 150.385 47.0957 150.577 47.1934 150.743C47.291 150.906 47.4294 151.048 47.6084 151.168C47.7842 151.292 47.9958 151.397 48.2432 151.485C48.4938 151.573 48.7705 151.648 49.0732 151.71C49.3206 151.759 49.5273 151.814 49.6934 151.876C49.8594 151.935 49.9928 152 50.0938 152.071C50.1947 152.143 50.2663 152.223 50.3086 152.311C50.3509 152.395 50.3721 152.491 50.3721 152.599ZM58.8682 156.031H59.7715V153.492C59.8366 153.564 59.9066 153.631 59.9814 153.692C60.0563 153.751 60.1361 153.805 60.2207 153.854C60.3607 153.932 60.5169 153.992 60.6895 154.034C60.8652 154.076 61.054 154.098 61.2559 154.098C61.5879 154.098 61.8825 154.029 62.1396 153.893C62.4001 153.756 62.6182 153.567 62.7939 153.326C62.9697 153.085 63.1032 152.802 63.1943 152.477C63.2855 152.148 63.3311 151.795 63.3311 151.417V151.314C63.3311 150.921 63.2855 150.559 63.1943 150.23C63.1032 149.898 62.9697 149.614 62.7939 149.376C62.6182 149.138 62.4001 148.953 62.1396 148.819C61.8792 148.686 61.5798 148.619 61.2412 148.619C61.0492 148.619 60.8685 148.64 60.6992 148.683C60.5332 148.722 60.3818 148.78 60.2451 148.858C60.1475 148.91 60.0563 148.974 59.9717 149.049C59.887 149.12 59.8089 149.202 59.7373 149.293L59.6934 148.717H58.8682V156.031ZM62.4277 151.314V151.417C62.4277 151.674 62.3984 151.92 62.3398 152.154C62.2845 152.389 62.1982 152.595 62.0811 152.774C61.9639 152.953 61.8141 153.097 61.6318 153.204C61.4495 153.308 61.2331 153.36 60.9824 153.36C60.8262 153.36 60.6829 153.341 60.5527 153.302C60.4258 153.263 60.3102 153.209 60.2061 153.141C60.1149 153.082 60.0335 153.01 59.9619 152.926C59.8903 152.841 59.8268 152.75 59.7715 152.652V150.108C59.8333 149.998 59.9049 149.897 59.9863 149.806C60.0677 149.715 60.1605 149.638 60.2646 149.576C60.359 149.514 60.4648 149.467 60.582 149.435C60.7025 149.402 60.8327 149.386 60.9727 149.386C61.2266 149.386 61.4447 149.438 61.627 149.542C61.8092 149.646 61.9606 149.786 62.0811 149.962C62.1982 150.141 62.2845 150.348 62.3398 150.582C62.3984 150.813 62.4277 151.057 62.4277 151.314ZM67.2129 154.098C67.7272 154.098 68.1585 153.995 68.5068 153.79C68.8584 153.582 69.1221 153.344 69.2979 153.077L68.7461 152.647C68.5801 152.862 68.3717 153.035 68.1211 153.165C67.8704 153.295 67.584 153.36 67.2617 153.36C67.0176 153.36 66.7946 153.315 66.5928 153.224C66.391 153.132 66.2184 153.007 66.0752 152.848C65.9352 152.698 65.8245 152.525 65.7432 152.33C65.665 152.135 65.6146 151.909 65.5918 151.651V151.617H69.3662V151.212C69.3662 150.844 69.319 150.502 69.2246 150.187C69.1335 149.871 68.9935 149.596 68.8047 149.361C68.6159 149.13 68.3783 148.95 68.0918 148.819C67.8086 148.686 67.4766 148.619 67.0957 148.619C66.793 148.619 66.4967 148.681 66.207 148.805C65.9206 148.928 65.665 149.106 65.4404 149.337C65.2126 149.571 65.0303 149.858 64.8936 150.196C64.7568 150.532 64.6885 150.912 64.6885 151.339V151.544C64.6885 151.912 64.7503 152.252 64.874 152.564C64.9977 152.877 65.1702 153.147 65.3916 153.375C65.613 153.603 65.8783 153.78 66.1875 153.907C66.5 154.034 66.8418 154.098 67.2129 154.098ZM67.0957 149.361C67.3268 149.361 67.5254 149.404 67.6914 149.488C67.8607 149.573 68.0007 149.684 68.1113 149.82C68.222 149.957 68.3083 150.12 68.3701 150.309C68.432 150.494 68.4629 150.668 68.4629 150.831V150.875H65.6211C65.6569 150.631 65.7188 150.416 65.8066 150.23C65.8978 150.042 66.0085 149.882 66.1387 149.752C66.2689 149.625 66.4154 149.529 66.5781 149.464C66.7409 149.396 66.9134 149.361 67.0957 149.361ZM70.7139 151.314V151.417C70.7139 151.795 70.7643 152.148 70.8652 152.477C70.9661 152.802 71.1077 153.085 71.29 153.326C71.4723 153.567 71.6921 153.756 71.9492 153.893C72.2096 154.029 72.4993 154.098 72.8184 154.098C73.1439 154.098 73.4287 154.042 73.6729 153.932C73.917 153.821 74.127 153.658 74.3027 153.443L74.3418 154H75.1719V146.5H74.2686V149.239C74.096 149.037 73.891 148.884 73.6533 148.78C73.4189 148.673 73.1439 148.619 72.8281 148.619C72.5059 148.619 72.2145 148.686 71.9541 148.819C71.6937 148.953 71.4723 149.138 71.29 149.376C71.1045 149.614 70.9613 149.898 70.8604 150.23C70.7627 150.559 70.7139 150.921 70.7139 151.314ZM71.6172 151.417V151.314C71.6172 151.057 71.6449 150.813 71.7002 150.582C71.7555 150.348 71.8418 150.141 71.959 149.962C72.0729 149.786 72.2194 149.646 72.3984 149.542C72.5807 149.438 72.7988 149.386 73.0527 149.386C73.349 149.386 73.5964 149.456 73.7949 149.596C73.9935 149.732 74.1514 149.908 74.2686 150.123V152.574C74.1514 152.805 73.9935 152.989 73.7949 153.126C73.5964 153.263 73.3457 153.331 73.043 153.331C72.7923 153.331 72.5775 153.281 72.3984 153.18C72.2194 153.076 72.0729 152.936 71.959 152.76C71.8418 152.584 71.7555 152.381 71.7002 152.149C71.6449 151.918 71.6172 151.674 71.6172 151.417ZM77.0322 148.717V149.503H78.8291V153.219H77.0322V154H81.4561V153.219H79.7324V148.717H77.0322ZM78.7119 147.33C78.7119 147.477 78.7559 147.599 78.8438 147.696C78.9349 147.794 79.0716 147.843 79.2539 147.843C79.4329 147.843 79.568 147.794 79.6592 147.696C79.7503 147.599 79.7959 147.477 79.7959 147.33C79.7959 147.249 79.7829 147.174 79.7568 147.105C79.7308 147.037 79.6917 146.98 79.6396 146.935C79.5973 146.892 79.5436 146.86 79.4785 146.837C79.4134 146.811 79.3385 146.798 79.2539 146.798C79.1693 146.798 79.0928 146.811 79.0244 146.837C78.9593 146.86 78.9056 146.892 78.8633 146.935C78.8112 146.983 78.7721 147.042 78.7461 147.11C78.7233 147.179 78.7119 147.252 78.7119 147.33ZM82.7256 151.314V151.417C82.7256 151.795 82.776 152.148 82.877 152.477C82.9779 152.802 83.1195 153.085 83.3018 153.326C83.484 153.567 83.7038 153.756 83.9609 153.893C84.2214 154.029 84.5111 154.098 84.8301 154.098C85.1556 154.098 85.4404 154.042 85.6846 153.932C85.9287 153.821 86.1387 153.658 86.3145 153.443L86.3535 154H87.1836V146.5H86.2803V149.239C86.1077 149.037 85.9027 148.884 85.665 148.78C85.4307 148.673 85.1556 148.619 84.8398 148.619C84.5176 148.619 84.2262 148.686 83.9658 148.819C83.7054 148.953 83.484 149.138 83.3018 149.376C83.1162 149.614 82.973 149.898 82.8721 150.23C82.7744 150.559 82.7256 150.921 82.7256 151.314ZM83.6289 151.417V151.314C83.6289 151.057 83.6566 150.813 83.7119 150.582C83.7673 150.348 83.8535 150.141 83.9707 149.962C84.0846 149.786 84.2311 149.646 84.4102 149.542C84.5924 149.438 84.8105 149.386 85.0645 149.386C85.3607 149.386 85.6081 149.456 85.8066 149.596C86.0052 149.732 86.1631 149.908 86.2803 150.123V152.574C86.1631 152.805 86.0052 152.989 85.8066 153.126C85.6081 153.263 85.3574 153.331 85.0547 153.331C84.804 153.331 84.5892 153.281 84.4102 153.18C84.2311 153.076 84.0846 152.936 83.9707 152.76C83.8535 152.584 83.7673 152.381 83.7119 152.149C83.6566 151.918 83.6289 151.674 83.6289 151.417ZM88.6484 151.31V151.417C88.6484 151.798 88.7038 152.151 88.8145 152.477C88.9251 152.802 89.0846 153.085 89.293 153.326C89.498 153.567 89.7487 153.756 90.0449 153.893C90.3444 154.029 90.6813 154.098 91.0557 154.098C91.4268 154.098 91.7604 154.029 92.0566 153.893C92.3529 153.756 92.6051 153.567 92.8135 153.326C93.0186 153.085 93.1764 152.802 93.2871 152.477C93.3978 152.151 93.4531 151.798 93.4531 151.417V151.31C93.4531 150.929 93.3978 150.576 93.2871 150.25C93.1764 149.921 93.0186 149.636 92.8135 149.396C92.6051 149.155 92.3512 148.966 92.0518 148.829C91.7555 148.689 91.4202 148.619 91.0459 148.619C90.6748 148.619 90.3411 148.689 90.0449 148.829C89.7487 148.966 89.498 149.155 89.293 149.396C89.0846 149.636 88.9251 149.921 88.8145 150.25C88.7038 150.576 88.6484 150.929 88.6484 151.31ZM89.5518 151.417V151.31C89.5518 151.052 89.5827 150.807 89.6445 150.572C89.7064 150.335 89.8008 150.126 89.9277 149.947C90.0514 149.768 90.2061 149.627 90.3916 149.522C90.5771 149.415 90.7952 149.361 91.0459 149.361C91.2965 149.361 91.5146 149.415 91.7002 149.522C91.889 149.627 92.0469 149.768 92.1738 149.947C92.2975 150.126 92.3903 150.335 92.4521 150.572C92.5173 150.807 92.5498 151.052 92.5498 151.31V151.417C92.5498 151.677 92.5189 151.926 92.457 152.164C92.3952 152.398 92.3024 152.605 92.1787 152.784C92.0518 152.963 91.8939 153.105 91.7051 153.209C91.5195 153.313 91.3031 153.365 91.0557 153.365C90.805 153.365 90.5853 153.313 90.3965 153.209C90.2077 153.105 90.0514 152.963 89.9277 152.784C89.8008 152.605 89.7064 152.398 89.6445 152.164C89.5827 151.926 89.5518 151.677 89.5518 151.417ZM98.4189 152.599C98.4189 152.683 98.4027 152.763 98.3701 152.838C98.3376 152.913 98.2904 152.981 98.2285 153.043C98.1276 153.144 97.9876 153.224 97.8086 153.282C97.6296 153.338 97.4196 153.365 97.1787 153.365C97.0257 153.365 96.8711 153.349 96.7148 153.316C96.5586 153.284 96.417 153.229 96.29 153.15C96.1598 153.072 96.0508 152.97 95.9629 152.843C95.8783 152.716 95.8294 152.56 95.8164 152.374H94.9131C94.9131 152.599 94.9635 152.815 95.0645 153.023C95.1686 153.232 95.3184 153.414 95.5137 153.57C95.7057 153.73 95.9417 153.858 96.2217 153.956C96.5016 154.05 96.8206 154.098 97.1787 154.098C97.4912 154.098 97.7793 154.06 98.043 153.985C98.3066 153.91 98.5329 153.805 98.7217 153.668C98.9105 153.531 99.057 153.367 99.1611 153.175C99.2686 152.983 99.3223 152.77 99.3223 152.535C99.3223 152.317 99.2751 152.125 99.1807 151.959C99.0895 151.793 98.9561 151.646 98.7803 151.52C98.6045 151.396 98.388 151.29 98.1309 151.202C97.8737 151.111 97.5824 151.031 97.2568 150.963C97.0094 150.914 96.8044 150.864 96.6416 150.812C96.4821 150.759 96.3551 150.701 96.2607 150.636C96.1631 150.571 96.0947 150.497 96.0557 150.416C96.0166 150.335 95.9971 150.242 95.9971 150.138C95.9971 150.037 96.0215 149.939 96.0703 149.845C96.1191 149.75 96.1924 149.667 96.29 149.596C96.3844 149.524 96.5033 149.467 96.6465 149.425C96.793 149.382 96.9622 149.361 97.1543 149.361C97.3398 149.361 97.5059 149.387 97.6523 149.439C97.8021 149.492 97.929 149.56 98.0332 149.645C98.1374 149.729 98.2188 149.827 98.2773 149.938C98.3359 150.045 98.3652 150.156 98.3652 150.27H99.2686C99.2686 150.038 99.2181 149.824 99.1172 149.625C99.0195 149.423 98.8796 149.247 98.6973 149.098C98.515 148.948 98.2936 148.831 98.0332 148.746C97.7728 148.661 97.4798 148.619 97.1543 148.619C96.8516 148.619 96.5732 148.66 96.3193 148.741C96.0687 148.823 95.8522 148.933 95.6699 149.073C95.4876 149.213 95.346 149.378 95.2451 149.566C95.1442 149.752 95.0938 149.952 95.0938 150.167C95.0938 150.385 95.1426 150.577 95.2402 150.743C95.3379 150.906 95.4762 151.048 95.6553 151.168C95.8311 151.292 96.0426 151.397 96.29 151.485C96.5407 151.573 96.8174 151.648 97.1201 151.71C97.3675 151.759 97.5742 151.814 97.7402 151.876C97.9062 151.935 98.0397 152 98.1406 152.071C98.2415 152.143 98.3132 152.223 98.3555 152.311C98.3978 152.395 98.4189 152.491 98.4189 152.599ZM106.749 151.314V151.417C106.749 151.795 106.799 152.148 106.9 152.477C107.001 152.802 107.143 153.085 107.325 153.326C107.507 153.567 107.727 153.756 107.984 153.893C108.245 154.029 108.535 154.098 108.854 154.098C109.179 154.098 109.464 154.042 109.708 153.932C109.952 153.821 110.162 153.658 110.338 153.443L110.377 154H111.207V146.5H110.304V149.239C110.131 149.037 109.926 148.884 109.688 148.78C109.454 148.673 109.179 148.619 108.863 148.619C108.541 148.619 108.25 148.686 107.989 148.819C107.729 148.953 107.507 149.138 107.325 149.376C107.14 149.614 106.996 149.898 106.896 150.23C106.798 150.559 106.749 150.921 106.749 151.314ZM107.652 151.417V151.314C107.652 151.057 107.68 150.813 107.735 150.582C107.791 150.348 107.877 150.141 107.994 149.962C108.108 149.786 108.255 149.646 108.434 149.542C108.616 149.438 108.834 149.386 109.088 149.386C109.384 149.386 109.632 149.456 109.83 149.596C110.029 149.732 110.187 149.908 110.304 150.123V152.574C110.187 152.805 110.029 152.989 109.83 153.126C109.632 153.263 109.381 153.331 109.078 153.331C108.827 153.331 108.613 153.281 108.434 153.18C108.255 153.076 108.108 152.936 107.994 152.76C107.877 152.584 107.791 152.381 107.735 152.149C107.68 151.918 107.652 151.674 107.652 151.417ZM115.26 154.098C115.774 154.098 116.205 153.995 116.554 153.79C116.905 153.582 117.169 153.344 117.345 153.077L116.793 152.647C116.627 152.862 116.419 153.035 116.168 153.165C115.917 153.295 115.631 153.36 115.309 153.36C115.064 153.36 114.841 153.315 114.64 153.224C114.438 153.132 114.265 153.007 114.122 152.848C113.982 152.698 113.871 152.525 113.79 152.33C113.712 152.135 113.661 151.909 113.639 151.651V151.617H117.413V151.212C117.413 150.844 117.366 150.502 117.271 150.187C117.18 149.871 117.04 149.596 116.852 149.361C116.663 149.13 116.425 148.95 116.139 148.819C115.855 148.686 115.523 148.619 115.143 148.619C114.84 148.619 114.544 148.681 114.254 148.805C113.967 148.928 113.712 149.106 113.487 149.337C113.259 149.571 113.077 149.858 112.94 150.196C112.804 150.532 112.735 150.912 112.735 151.339V151.544C112.735 151.912 112.797 152.252 112.921 152.564C113.045 152.877 113.217 153.147 113.438 153.375C113.66 153.603 113.925 153.78 114.234 153.907C114.547 154.034 114.889 154.098 115.26 154.098ZM115.143 149.361C115.374 149.361 115.572 149.404 115.738 149.488C115.908 149.573 116.048 149.684 116.158 149.82C116.269 149.957 116.355 150.12 116.417 150.309C116.479 150.494 116.51 150.668 116.51 150.831V150.875H113.668C113.704 150.631 113.766 150.416 113.854 150.23C113.945 150.042 114.055 149.882 114.186 149.752C114.316 149.625 114.462 149.529 114.625 149.464C114.788 149.396 114.96 149.361 115.143 149.361ZM127.188 153.365C126.905 153.365 126.668 153.31 126.476 153.199C126.287 153.085 126.135 152.937 126.021 152.755C125.904 152.576 125.82 152.374 125.768 152.149C125.719 151.922 125.694 151.692 125.694 151.461V151.256C125.694 151.028 125.719 150.802 125.768 150.577C125.82 150.353 125.904 150.149 126.021 149.967C126.139 149.788 126.292 149.643 126.48 149.532C126.673 149.418 126.909 149.361 127.188 149.361C127.371 149.361 127.54 149.392 127.696 149.454C127.856 149.516 127.993 149.601 128.106 149.708C128.22 149.815 128.31 149.941 128.375 150.084C128.443 150.224 128.479 150.374 128.482 150.533H129.337C129.337 150.266 129.283 150.016 129.176 149.781C129.068 149.547 128.92 149.343 128.731 149.171C128.539 149.002 128.312 148.868 128.048 148.771C127.787 148.67 127.501 148.619 127.188 148.619C126.788 148.619 126.438 148.691 126.139 148.834C125.839 148.977 125.59 149.169 125.392 149.41C125.19 149.654 125.038 149.936 124.938 150.255C124.837 150.574 124.786 150.908 124.786 151.256V151.461C124.786 151.812 124.837 152.148 124.938 152.467C125.038 152.783 125.19 153.061 125.392 153.302C125.59 153.546 125.839 153.74 126.139 153.883C126.438 154.026 126.788 154.098 127.188 154.098C127.468 154.098 127.737 154.05 127.994 153.956C128.251 153.858 128.479 153.728 128.678 153.565C128.876 153.406 129.034 153.22 129.151 153.009C129.272 152.794 129.334 152.569 129.337 152.335H128.482C128.479 152.481 128.44 152.618 128.365 152.745C128.294 152.869 128.198 152.976 128.077 153.067C127.957 153.162 127.818 153.235 127.662 153.287C127.509 153.339 127.351 153.365 127.188 153.365ZM134.415 154H135.357V153.922C135.299 153.775 135.253 153.604 135.221 153.409C135.188 153.211 135.172 153.023 135.172 152.848V150.392C135.172 150.095 135.118 149.837 135.011 149.615C134.903 149.394 134.757 149.208 134.571 149.059C134.382 148.912 134.16 148.803 133.902 148.731C133.645 148.657 133.367 148.619 133.067 148.619C132.739 148.619 132.444 148.665 132.184 148.756C131.926 148.847 131.708 148.966 131.529 149.112C131.347 149.262 131.207 149.43 131.109 149.615C131.015 149.801 130.966 149.99 130.963 150.182H131.871C131.871 150.071 131.897 149.965 131.949 149.864C132.005 149.76 132.081 149.671 132.179 149.596C132.276 149.521 132.395 149.461 132.535 149.415C132.678 149.369 132.84 149.347 133.019 149.347C133.211 149.347 133.383 149.371 133.536 149.42C133.692 149.469 133.824 149.537 133.932 149.625C134.039 149.716 134.122 149.825 134.181 149.952C134.239 150.079 134.269 150.222 134.269 150.382V150.797H133.282C132.914 150.797 132.581 150.833 132.281 150.904C131.985 150.976 131.731 151.083 131.52 151.227C131.308 151.373 131.144 151.555 131.026 151.773C130.912 151.992 130.855 152.245 130.855 152.535C130.855 152.757 130.898 152.963 130.982 153.155C131.07 153.344 131.194 153.507 131.354 153.644C131.51 153.784 131.7 153.894 131.925 153.976C132.153 154.057 132.407 154.098 132.687 154.098C132.859 154.098 133.022 154.08 133.175 154.044C133.328 154.008 133.473 153.959 133.609 153.897C133.743 153.836 133.865 153.764 133.976 153.683C134.09 153.601 134.192 153.515 134.283 153.424C134.293 153.535 134.308 153.642 134.327 153.746C134.35 153.847 134.379 153.932 134.415 154ZM132.818 153.312C132.643 153.312 132.488 153.289 132.354 153.243C132.221 153.198 132.11 153.134 132.022 153.053C131.935 152.975 131.868 152.88 131.822 152.77C131.78 152.659 131.759 152.538 131.759 152.408C131.759 152.271 131.783 152.149 131.832 152.042C131.884 151.935 131.959 151.842 132.057 151.764C132.193 151.653 132.377 151.572 132.608 151.52C132.843 151.464 133.116 151.437 133.429 151.437H134.269V152.506C134.216 152.61 134.145 152.711 134.054 152.809C133.963 152.903 133.855 152.988 133.731 153.062C133.604 153.137 133.465 153.198 133.312 153.243C133.159 153.289 132.994 153.312 132.818 153.312ZM137.091 146.5V147.286H138.888V153.219H137.091V154H141.515V153.219H139.791V146.5H137.091ZM143.097 148.717V149.503H144.894V153.219H143.097V154H147.521V153.219H145.797V148.717H143.097ZM144.776 147.33C144.776 147.477 144.82 147.599 144.908 147.696C144.999 147.794 145.136 147.843 145.318 147.843C145.497 147.843 145.632 147.794 145.724 147.696C145.815 147.599 145.86 147.477 145.86 147.33C145.86 147.249 145.847 147.174 145.821 147.105C145.795 147.037 145.756 146.98 145.704 146.935C145.662 146.892 145.608 146.86 145.543 146.837C145.478 146.811 145.403 146.798 145.318 146.798C145.234 146.798 145.157 146.811 145.089 146.837C145.024 146.86 144.97 146.892 144.928 146.935C144.876 146.983 144.837 147.042 144.811 147.11C144.788 147.179 144.776 147.252 144.776 147.33ZM148.79 151.314V151.417C148.79 151.795 148.84 152.148 148.941 152.477C149.042 152.802 149.184 153.085 149.366 153.326C149.549 153.567 149.768 153.756 150.025 153.893C150.286 154.029 150.576 154.098 150.895 154.098C151.22 154.098 151.505 154.042 151.749 153.932C151.993 153.821 152.203 153.658 152.379 153.443L152.418 154H153.248V146.5H152.345V149.239C152.172 149.037 151.967 148.884 151.729 148.78C151.495 148.673 151.22 148.619 150.904 148.619C150.582 148.619 150.291 148.686 150.03 148.819C149.77 148.953 149.549 149.138 149.366 149.376C149.181 149.614 149.037 149.898 148.937 150.23C148.839 150.559 148.79 150.921 148.79 151.314ZM149.693 151.417V151.314C149.693 151.057 149.721 150.813 149.776 150.582C149.832 150.348 149.918 150.141 150.035 149.962C150.149 149.786 150.296 149.646 150.475 149.542C150.657 149.438 150.875 149.386 151.129 149.386C151.425 149.386 151.673 149.456 151.871 149.596C152.07 149.732 152.228 149.908 152.345 150.123V152.574C152.228 152.805 152.07 152.989 151.871 153.126C151.673 153.263 151.422 153.331 151.119 153.331C150.868 153.331 150.654 153.281 150.475 153.18C150.296 153.076 150.149 152.936 150.035 152.76C149.918 152.584 149.832 152.381 149.776 152.149C149.721 151.918 149.693 151.674 149.693 151.417ZM158.438 154H159.381V153.922C159.322 153.775 159.277 153.604 159.244 153.409C159.212 153.211 159.195 153.023 159.195 152.848V150.392C159.195 150.095 159.142 149.837 159.034 149.615C158.927 149.394 158.78 149.208 158.595 149.059C158.406 148.912 158.183 148.803 157.926 148.731C157.669 148.657 157.39 148.619 157.091 148.619C156.762 148.619 156.467 148.665 156.207 148.756C155.95 148.847 155.732 148.966 155.553 149.112C155.37 149.262 155.23 149.43 155.133 149.615C155.038 149.801 154.99 149.99 154.986 150.182H155.895C155.895 150.071 155.921 149.965 155.973 149.864C156.028 149.76 156.104 149.671 156.202 149.596C156.3 149.521 156.419 149.461 156.559 149.415C156.702 149.369 156.863 149.347 157.042 149.347C157.234 149.347 157.407 149.371 157.56 149.42C157.716 149.469 157.848 149.537 157.955 149.625C158.062 149.716 158.146 149.825 158.204 149.952C158.263 150.079 158.292 150.222 158.292 150.382V150.797H157.306C156.938 150.797 156.604 150.833 156.305 150.904C156.008 150.976 155.755 151.083 155.543 151.227C155.331 151.373 155.167 151.555 155.05 151.773C154.936 151.992 154.879 152.245 154.879 152.535C154.879 152.757 154.921 152.963 155.006 153.155C155.094 153.344 155.217 153.507 155.377 153.644C155.533 153.784 155.724 153.894 155.948 153.976C156.176 154.057 156.43 154.098 156.71 154.098C156.882 154.098 157.045 154.08 157.198 154.044C157.351 154.008 157.496 153.959 157.633 153.897C157.766 153.836 157.888 153.764 157.999 153.683C158.113 153.601 158.215 153.515 158.307 153.424C158.316 153.535 158.331 153.642 158.351 153.746C158.373 153.847 158.403 153.932 158.438 154ZM156.842 153.312C156.666 153.312 156.511 153.289 156.378 153.243C156.244 153.198 156.134 153.134 156.046 153.053C155.958 152.975 155.891 152.88 155.846 152.77C155.803 152.659 155.782 152.538 155.782 152.408C155.782 152.271 155.807 152.149 155.855 152.042C155.908 151.935 155.982 151.842 156.08 151.764C156.217 151.653 156.401 151.572 156.632 151.52C156.866 151.464 157.14 151.437 157.452 151.437H158.292V152.506C158.24 152.61 158.168 152.711 158.077 152.809C157.986 152.903 157.879 152.988 157.755 153.062C157.628 153.137 157.488 153.198 157.335 153.243C157.182 153.289 157.018 153.312 156.842 153.312ZM160.802 151.314V151.417C160.802 151.795 160.852 152.148 160.953 152.477C161.054 152.802 161.196 153.085 161.378 153.326C161.56 153.567 161.78 153.756 162.037 153.893C162.298 154.029 162.587 154.098 162.906 154.098C163.232 154.098 163.517 154.042 163.761 153.932C164.005 153.821 164.215 153.658 164.391 153.443L164.43 154H165.26V146.5H164.356V149.239C164.184 149.037 163.979 148.884 163.741 148.78C163.507 148.673 163.232 148.619 162.916 148.619C162.594 148.619 162.302 148.686 162.042 148.819C161.782 148.953 161.56 149.138 161.378 149.376C161.192 149.614 161.049 149.898 160.948 150.23C160.851 150.559 160.802 150.921 160.802 151.314ZM161.705 151.417V151.314C161.705 151.057 161.733 150.813 161.788 150.582C161.843 150.348 161.93 150.141 162.047 149.962C162.161 149.786 162.307 149.646 162.486 149.542C162.669 149.438 162.887 149.386 163.141 149.386C163.437 149.386 163.684 149.456 163.883 149.596C164.081 149.732 164.239 149.908 164.356 150.123V152.574C164.239 152.805 164.081 152.989 163.883 153.126C163.684 153.263 163.434 153.331 163.131 153.331C162.88 153.331 162.665 153.281 162.486 153.18C162.307 153.076 162.161 152.936 162.047 152.76C161.93 152.584 161.843 152.381 161.788 152.149C161.733 151.918 161.705 151.674 161.705 151.417Z" fill="#7619D2"/>
<g opacity="0.1">
<path opacity="0.1" d="M199.068 151.72V156.137H194.37" stroke="#7619D2" stroke-miterlimit="10"/>
<path opacity="0.1" d="M185.35 156.137H9.20801" stroke="#7619D2" stroke-miterlimit="10" stroke-dasharray="5.77 5.77"/>
<path opacity="0.1" d="M4.69796 156.137H0V151.72" stroke="#7619D2" stroke-miterlimit="10"/>
<path opacity="0.1" d="M0 143.226V-22.3439" stroke="#7619D2" stroke-miterlimit="10" stroke-dasharray="5.77 5.77"/>
<path opacity="0.1" d="M199.068 -18.1042V147.481" stroke="#7619D2" stroke-miterlimit="10" stroke-dasharray="5.77 5.77"/>
</g>
<path d="M132.42 73.5503C130.83 71.8953 129.482 70.0487 128.411 68.0593C126.719 64.941 124.379 62.1727 121.531 59.9175C118.683 57.6624 115.383 55.9658 111.827 54.9279C108.717 54.024 105.463 53.6404 102.212 53.7944C104.578 53.6673 106.908 54.3854 108.735 55.8052C110.561 57.2247 111.75 59.2408 112.062 61.4494C112.917 66.2216 115.167 70.6763 118.561 74.3157C121.954 77.9552 126.356 80.6361 131.277 82.0592C136.903 83.6847 142.932 83.5971 148.503 81.8089C142.298 80.8577 136.624 77.9443 132.42 73.5503Z" fill="#7619D2"/>
<path d="M92.2678 54.0888C92.9908 57.0748 94.2627 59.9194 96.0261 62.4946C94.7384 60.6247 94.2428 58.3691 94.6371 56.1727C95.0313 53.9762 96.2869 51.9984 98.1559 50.6293C102.126 47.5425 105.106 43.4805 106.765 38.8956C108.424 34.3106 108.696 29.3828 107.552 24.661C106.246 19.2593 103.147 14.3877 98.704 10.7494C100.916 16.3083 101.043 22.4107 99.0642 28.0469C98.3065 30.1747 97.2534 32.1991 95.9322 34.0679C93.9036 37.0034 92.5216 40.2917 91.868 43.7381C91.2143 47.1845 91.3023 50.7191 92.1268 54.1329L92.2678 54.0888Z" fill="#7619D2"/>
<path d="M107.223 63.0982C106.158 65.0894 104.331 66.6285 102.109 67.4065C99.8874 68.1847 97.4348 68.1443 95.2432 67.2938C90.4135 65.5923 85.1756 65.1869 80.1149 66.1227C75.0541 67.0585 70.37 69.2989 66.5857 72.5934C62.271 76.3668 59.3426 81.3309 58.2232 86.77C62.2383 82.1884 67.7955 79.031 73.977 77.8195C76.2994 77.3727 78.6719 77.1995 81.0397 77.3042C84.7537 77.4851 88.4685 76.9647 91.9651 75.7739C95.4615 74.583 98.6687 72.7458 101.397 70.3705C103.786 68.2857 105.768 65.8246 107.254 63.0982H107.223Z" fill="#7619D2"/>
</g>
<defs>
<clipPath id="clip0">
<rect width="200" height="200" fill="white"/>
</clipPath>
</defs>
</svg>
