<svg width="25" height="25" viewBox="0 0 25 25" fill="none" xmlns="http://www.w3.org/2000/svg">
<g clip-path="url(#clip0)">
<g opacity="0.1">
</g>
<path d="M20.2574 17.932C19.8582 17.4898 19.5196 16.9965 19.2505 16.465C18.8255 15.6319 18.238 14.8923 17.5227 14.2898C16.8074 13.6873 15.9787 13.234 15.0855 12.9568C14.3045 12.7153 13.4871 12.6128 12.6707 12.6539C13.2649 12.62 13.8501 12.8118 14.3088 13.1911C14.7676 13.5704 15.0661 14.109 15.1445 14.6991C15.3594 15.974 15.9244 17.1642 16.7766 18.1365C17.6288 19.1088 18.7345 19.8251 19.9703 20.2053C21.3833 20.6395 22.8975 20.6161 24.2965 20.1384C22.7382 19.8842 21.3133 19.1059 20.2574 17.932Z" fill="white"/>
<path d="M10.1731 12.7326C10.3547 13.5303 10.6741 14.2903 11.117 14.9783C10.7936 14.4787 10.6691 13.8761 10.7681 13.2893C10.8671 12.7025 11.1825 12.1741 11.6519 11.8083C12.6489 10.9837 13.3973 9.89842 13.814 8.6735C14.2306 7.44857 14.299 6.13204 14.0117 4.87054C13.6836 3.42741 12.9055 2.12591 11.7895 1.15387C12.3451 2.639 12.377 4.26934 11.88 5.77512C11.6897 6.3436 11.4252 6.88446 11.0934 7.38371C10.5839 8.16799 10.2368 9.0465 10.0727 9.96725C9.90851 10.888 9.93061 11.8323 10.1377 12.7444L10.1731 12.7326Z" fill="white"/>
<path d="M13.9291 15.1395C13.6615 15.6715 13.2028 16.0827 12.6447 16.2906C12.0868 16.4984 11.4708 16.4877 10.9204 16.2604C9.7074 15.8059 8.3919 15.6975 7.12092 15.9476C5.84989 16.1976 4.67346 16.7961 3.72305 17.6763C2.6394 18.6844 1.90393 20.0106 1.6228 21.4638C2.63118 20.2397 4.02688 19.3962 5.57938 19.0725C6.16264 18.9531 6.75849 18.9069 7.35316 18.9349C8.28594 18.9832 9.21893 18.8442 10.0971 18.526C10.9752 18.2078 11.7807 17.717 12.466 17.0824C13.0658 16.5254 13.5636 15.8679 13.937 15.1395H13.9291Z" fill="white"/>
</g>
<defs>
<clipPath id="clip0">
<rect width="25" height="25" fill="white"/>
</clipPath>
</defs>
</svg>
