<svg width="108" height="22" viewBox="0 0 108 22" fill="none" xmlns="http://www.w3.org/2000/svg">
<g clip-path="url(#clip0)">
<path d="M9.66504 4.20312L13.8486 14.6445L18.0322 4.20312H20.2207V17H18.5332V12.0166L18.6914 6.6377L14.4902 17H13.1982L9.00586 6.66406L9.17285 12.0166V17H7.48535V4.20312H9.66504ZM29.7164 17C29.6227 16.8125 29.5465 16.4785 29.4879 15.998C28.732 16.7832 27.8297 17.1758 26.7809 17.1758C25.8434 17.1758 25.0729 16.9121 24.4693 16.3848C23.8717 15.8516 23.5729 15.1777 23.5729 14.3633C23.5729 13.373 23.9479 12.6055 24.6979 12.0605C25.4537 11.5098 26.5143 11.2344 27.8795 11.2344H29.4615V10.4873C29.4615 9.91895 29.2916 9.46777 28.9518 9.13379C28.6119 8.79395 28.1109 8.62402 27.4488 8.62402C26.8687 8.62402 26.3824 8.77051 25.9898 9.06348C25.5973 9.35645 25.401 9.71094 25.401 10.127H23.7662C23.7662 9.65234 23.9332 9.19531 24.2672 8.75586C24.607 8.31055 25.0641 7.95898 25.6383 7.70117C26.2184 7.44336 26.8541 7.31445 27.5455 7.31445C28.6412 7.31445 29.4996 7.58984 30.1207 8.14062C30.7418 8.68555 31.0641 9.43848 31.0875 10.3994V14.7764C31.0875 15.6494 31.1988 16.3438 31.4215 16.8594V17H29.7164ZM27.0182 15.7607C27.5279 15.7607 28.0113 15.6289 28.4684 15.3652C28.9254 15.1016 29.2564 14.7588 29.4615 14.3369V12.3857H28.1871C26.1949 12.3857 25.1988 12.9688 25.1988 14.1348C25.1988 14.6445 25.3687 15.043 25.7086 15.3301C26.0484 15.6172 26.485 15.7607 27.0182 15.7607ZM39.133 8.94922C38.8869 8.9082 38.6203 8.8877 38.3332 8.8877C37.2668 8.8877 36.5432 9.3418 36.1623 10.25V17H34.5363V7.49023H36.1184L36.1447 8.58887C36.6779 7.73926 37.4338 7.31445 38.4123 7.31445C38.7287 7.31445 38.9689 7.35547 39.133 7.4375V8.94922ZM44.1902 12.5967L43.1707 13.6602V17H41.5447V3.5H43.1707V11.665L44.0408 10.6191L47.0027 7.49023H48.9803L45.2801 11.4629L49.4109 17H47.5037L44.1902 12.5967ZM55.3295 17.1758C54.0404 17.1758 52.9916 16.7539 52.183 15.9102C51.3744 15.0605 50.9701 13.9268 50.9701 12.5088V12.21C50.9701 11.2666 51.1488 10.4258 51.5062 9.6875C51.8695 8.94336 52.3734 8.36328 53.018 7.94727C53.6684 7.52539 54.3715 7.31445 55.1273 7.31445C56.3637 7.31445 57.3246 7.72168 58.0102 8.53613C58.6957 9.35059 59.0385 10.5166 59.0385 12.0342V12.7109H52.5961C52.6195 13.6484 52.892 14.4072 53.4135 14.9873C53.9408 15.5615 54.6088 15.8486 55.4174 15.8486C55.9916 15.8486 56.4779 15.7314 56.8764 15.4971C57.2748 15.2627 57.6234 14.9521 57.9223 14.5654L58.9154 15.3389C58.1186 16.5635 56.9232 17.1758 55.3295 17.1758ZM55.1273 8.65039C54.4711 8.65039 53.9203 8.89062 53.475 9.37109C53.0297 9.8457 52.7543 10.5137 52.6488 11.375H57.4125V11.252C57.3656 10.4258 57.143 9.78711 56.7445 9.33594C56.3461 8.87891 55.807 8.65039 55.1273 8.65039ZM64.0342 5.1875V7.49023H65.8096V8.74707H64.0342V14.6445C64.0342 15.0254 64.1133 15.3125 64.2715 15.5059C64.4297 15.6934 64.6992 15.7871 65.0801 15.7871C65.2676 15.7871 65.5254 15.752 65.8535 15.6816V17C65.4258 17.1172 65.0098 17.1758 64.6055 17.1758C63.8789 17.1758 63.3311 16.9561 62.9619 16.5166C62.5928 16.0771 62.4082 15.4531 62.4082 14.6445V8.74707H60.6768V7.49023H62.4082V5.1875H64.0342ZM75.9293 11.3486H70.5592V17H68.8717V4.20312H76.7994V5.5918H70.5592V9.96875H75.9293V11.3486ZM85.0383 17C84.9445 16.8125 84.8684 16.4785 84.8098 15.998C84.0539 16.7832 83.1516 17.1758 82.1027 17.1758C81.1652 17.1758 80.3947 16.9121 79.7912 16.3848C79.1936 15.8516 78.8947 15.1777 78.8947 14.3633C78.8947 13.373 79.2697 12.6055 80.0197 12.0605C80.7756 11.5098 81.8361 11.2344 83.2014 11.2344H84.7834V10.4873C84.7834 9.91895 84.6135 9.46777 84.2736 9.13379C83.9338 8.79395 83.4328 8.62402 82.7707 8.62402C82.1906 8.62402 81.7043 8.77051 81.3117 9.06348C80.9191 9.35645 80.7229 9.71094 80.7229 10.127H79.0881C79.0881 9.65234 79.2551 9.19531 79.5891 8.75586C79.9289 8.31055 80.3859 7.95898 80.9602 7.70117C81.5402 7.44336 82.176 7.31445 82.8674 7.31445C83.9631 7.31445 84.8215 7.58984 85.4426 8.14062C86.0637 8.68555 86.3859 9.43848 86.4094 10.3994V14.7764C86.4094 15.6494 86.5207 16.3438 86.7434 16.8594V17H85.0383ZM82.34 15.7607C82.8498 15.7607 83.3332 15.6289 83.7902 15.3652C84.2473 15.1016 84.5783 14.7588 84.7834 14.3369V12.3857H83.509C81.5168 12.3857 80.5207 12.9688 80.5207 14.1348C80.5207 14.6445 80.6906 15.043 81.0305 15.3301C81.3703 15.6172 81.8068 15.7607 82.34 15.7607ZM95.3953 14.4775C95.3953 14.0381 95.2283 13.6982 94.8943 13.458C94.5662 13.2119 93.9891 13.001 93.1629 12.8252C92.3426 12.6494 91.6893 12.4385 91.2029 12.1924C90.7225 11.9463 90.365 11.6533 90.1307 11.3135C89.9021 10.9736 89.7879 10.5693 89.7879 10.1006C89.7879 9.32129 90.116 8.66211 90.7723 8.12305C91.4344 7.58398 92.2781 7.31445 93.3035 7.31445C94.3816 7.31445 95.2547 7.59277 95.9227 8.14941C96.5965 8.70605 96.9334 9.41797 96.9334 10.2852H95.2986C95.2986 9.83984 95.1082 9.45605 94.7273 9.13379C94.3523 8.81152 93.8777 8.65039 93.3035 8.65039C92.7117 8.65039 92.2488 8.7793 91.9148 9.03711C91.5809 9.29492 91.4139 9.63184 91.4139 10.0479C91.4139 10.4404 91.5691 10.7363 91.8797 10.9355C92.1902 11.1348 92.7498 11.3252 93.5584 11.5068C94.3728 11.6885 95.032 11.9053 95.5359 12.1572C96.0398 12.4092 96.4119 12.7139 96.6521 13.0713C96.8982 13.4229 97.0213 13.8535 97.0213 14.3633C97.0213 15.2129 96.6814 15.8955 96.0018 16.4111C95.3221 16.9209 94.4402 17.1758 93.3562 17.1758C92.5945 17.1758 91.9207 17.041 91.3348 16.7715C90.7488 16.502 90.2889 16.127 89.9549 15.6465C89.6268 15.1602 89.4627 14.6357 89.4627 14.0732H91.0887C91.118 14.6182 91.3348 15.0518 91.7391 15.374C92.1492 15.6904 92.6883 15.8486 93.3562 15.8486C93.9715 15.8486 94.4637 15.7256 94.8328 15.4795C95.2078 15.2275 95.3953 14.8936 95.3953 14.4775ZM102.246 5.1875V7.49023H104.021V8.74707H102.246V14.6445C102.246 15.0254 102.325 15.3125 102.483 15.5059C102.641 15.6934 102.911 15.7871 103.291 15.7871C103.479 15.7871 103.737 15.752 104.065 15.6816V17C103.637 17.1172 103.221 17.1758 102.817 17.1758C102.09 17.1758 101.542 16.9561 101.173 16.5166C100.804 16.0771 100.62 15.4531 100.62 14.6445V8.74707H98.8881V7.49023H100.62V5.1875H102.246Z" fill="#7619D2"/>
</g>
<defs>
<clipPath id="clip0">
<rect width="108" height="22" fill="white"/>
</clipPath>
</defs>
</svg>
