<svg width="286" height="70" viewBox="0 0 286 70" fill="none" xmlns="http://www.w3.org/2000/svg">
<g clip-path="url(#clip0)">
<g opacity="0.1">
<path opacity="0.1" d="M98.8281 -11.0762V103.506" stroke="#7619D2" stroke-miterlimit="10" stroke-dasharray="5.77 5.77"/>
</g>
<path d="M54.6918 52.3474C53.6393 51.2022 52.7465 49.9243 52.037 48.5477C50.9163 46.3899 49.3672 44.4742 47.4811 42.9137C45.595 41.3531 43.4099 40.1791 41.0548 39.4609C38.9954 38.8355 36.8403 38.57 34.6874 38.6765C36.2544 38.5886 37.7973 39.0855 39.0069 40.068C40.2166 41.0503 41.0037 42.4454 41.2104 43.9737C41.7769 47.276 43.2668 50.3586 45.5139 52.877C47.7608 55.3955 50.6764 57.2506 53.9348 58.2354C57.6608 59.3602 61.6534 59.2996 65.3422 58.0622C61.2333 57.404 57.4761 55.388 54.6918 52.3474Z" fill="#7619D2"/>
<path d="M28.1021 38.8803C28.5809 40.9466 29.4232 42.915 30.591 44.697C29.7383 43.4031 29.41 41.8422 29.6712 40.3223C29.9322 38.8023 30.7637 37.4337 32.0014 36.4863C34.6302 34.3503 36.6037 31.5395 37.7024 28.3668C38.8009 25.194 38.9814 21.7841 38.2236 18.5166C37.3586 14.7787 35.3068 11.4077 32.3643 8.88998C33.8293 12.7367 33.9135 16.9594 32.6029 20.8596C32.1011 22.332 31.4037 23.7329 30.5288 25.0261C29.1854 27.0574 28.2702 29.3329 27.8374 31.7177C27.4045 34.1026 27.4628 36.5485 28.0088 38.9108L28.1021 38.8803Z" fill="#7619D2"/>
<path d="M38.0058 45.1147C37.3003 46.4925 36.0906 47.5576 34.6193 48.096C33.148 48.6344 31.5238 48.6065 30.0725 48.0179C26.8742 46.8405 23.4055 46.56 20.0542 47.2076C16.7028 47.8551 13.6008 49.4055 11.0948 51.6852C8.23747 54.2963 6.29821 57.7315 5.55693 61.4952C8.21579 58.3248 11.8959 56.14 15.9895 55.3016C17.5275 54.9924 19.0986 54.8726 20.6666 54.945C23.1261 55.0702 25.5862 54.7101 27.9017 53.8861C30.2171 53.062 32.341 51.7907 34.148 50.147C35.7295 48.7043 37.0421 47.0013 38.0266 45.1147H38.0058Z" fill="#7619D2"/>
<path d="M72.3301 14.4062L80.6973 35.2891L89.0645 14.4062H93.4414V40H90.0664V30.0332L90.3828 19.2754L81.9805 40H79.3965L71.0117 19.3281L71.3457 30.0332V40H67.9707V14.4062H72.3301ZM112.433 40C112.245 39.625 112.093 38.957 111.976 37.9961C110.464 39.5664 108.659 40.3516 106.562 40.3516C104.687 40.3516 103.146 39.8242 101.939 38.7695C100.743 37.7031 100.146 36.3555 100.146 34.7266C100.146 32.7461 100.896 31.2109 102.396 30.1211C103.907 29.0195 106.029 28.4688 108.759 28.4688H111.923V26.9746C111.923 25.8379 111.583 24.9355 110.904 24.2676C110.224 23.5879 109.222 23.248 107.898 23.248C106.737 23.248 105.765 23.541 104.98 24.127C104.195 24.7129 103.802 25.4219 103.802 26.2539H100.532C100.532 25.3047 100.866 24.3906 101.534 23.5117C102.214 22.6211 103.128 21.918 104.277 21.4023C105.437 20.8867 106.708 20.6289 108.091 20.6289C110.282 20.6289 111.999 21.1797 113.241 22.2812C114.484 23.3711 115.128 24.877 115.175 26.7988V35.5527C115.175 37.2988 115.398 38.6875 115.843 39.7188V40H112.433ZM107.036 37.5215C108.056 37.5215 109.023 37.2578 109.937 36.7305C110.851 36.2031 111.513 35.5176 111.923 34.6738V30.7715H109.374C105.39 30.7715 103.398 31.9375 103.398 34.2695C103.398 35.2891 103.737 36.0859 104.417 36.6602C105.097 37.2344 105.97 37.5215 107.036 37.5215ZM131.266 23.8984C130.774 23.8164 130.241 23.7754 129.666 23.7754C127.534 23.7754 126.086 24.6836 125.325 26.5V40H122.073V20.9805H125.237L125.289 23.1777C126.356 21.4785 127.868 20.6289 129.825 20.6289C130.457 20.6289 130.938 20.7109 131.266 20.875V23.8984ZM141.38 31.1934L139.341 33.3203V40H136.089V13H139.341V29.3301L141.082 27.2383L147.005 20.9805H150.961L143.56 28.9258L151.822 40H148.007L141.38 31.1934ZM163.659 40.3516C161.081 40.3516 158.983 39.5078 157.366 37.8203C155.749 36.1211 154.94 33.8535 154.94 31.0176V30.4199C154.94 28.5332 155.298 26.8516 156.012 25.375C156.739 23.8867 157.747 22.7266 159.036 21.8945C160.337 21.0508 161.743 20.6289 163.255 20.6289C165.727 20.6289 167.649 21.4434 169.02 23.0723C170.391 24.7012 171.077 27.0332 171.077 30.0684V31.4219H158.192C158.239 33.2969 158.784 34.8145 159.827 35.9746C160.882 37.123 162.218 37.6973 163.835 37.6973C164.983 37.6973 165.956 37.4629 166.753 36.9941C167.55 36.5254 168.247 35.9043 168.845 35.1309L170.831 36.6777C169.237 39.127 166.846 40.3516 163.659 40.3516ZM163.255 23.3008C161.942 23.3008 160.841 23.7812 159.95 24.7422C159.059 25.6914 158.509 27.0273 158.298 28.75H167.825V28.5039C167.731 26.8516 167.286 25.5742 166.489 24.6719C165.692 23.7578 164.614 23.3008 163.255 23.3008ZM181.068 16.375V20.9805H184.619V23.4941H181.068V35.2891C181.068 36.0508 181.227 36.625 181.543 37.0117C181.859 37.3867 182.398 37.5742 183.16 37.5742C183.535 37.5742 184.051 37.5039 184.707 37.3633V40C183.852 40.2344 183.02 40.3516 182.211 40.3516C180.758 40.3516 179.662 39.9121 178.924 39.0332C178.186 38.1543 177.816 36.9062 177.816 35.2891V23.4941H174.354V20.9805H177.816V16.375H181.068ZM204.859 28.6973H194.118V40H190.743V14.4062H206.599V17.1836H194.118V25.9375H204.859V28.6973ZM223.077 40C222.889 39.625 222.737 38.957 222.62 37.9961C221.108 39.5664 219.303 40.3516 217.205 40.3516C215.33 40.3516 213.789 39.8242 212.582 38.7695C211.387 37.7031 210.789 36.3555 210.789 34.7266C210.789 32.7461 211.539 31.2109 213.039 30.1211C214.551 29.0195 216.672 28.4688 219.403 28.4688H222.567V26.9746C222.567 25.8379 222.227 24.9355 221.547 24.2676C220.868 23.5879 219.866 23.248 218.541 23.248C217.381 23.248 216.409 23.541 215.623 24.127C214.838 24.7129 214.446 25.4219 214.446 26.2539H211.176C211.176 25.3047 211.51 24.3906 212.178 23.5117C212.858 22.6211 213.772 21.918 214.92 21.4023C216.08 20.8867 217.352 20.6289 218.735 20.6289C220.926 20.6289 222.643 21.1797 223.885 22.2812C225.127 23.3711 225.772 24.877 225.819 26.7988V35.5527C225.819 37.2988 226.041 38.6875 226.487 39.7188V40H223.077ZM217.68 37.5215C218.7 37.5215 219.666 37.2578 220.58 36.7305C221.495 36.2031 222.157 35.5176 222.567 34.6738V30.7715H220.018C216.034 30.7715 214.041 31.9375 214.041 34.2695C214.041 35.2891 214.381 36.0859 215.061 36.6602C215.741 37.2344 216.614 37.5215 217.68 37.5215ZM243.791 34.9551C243.791 34.0762 243.457 33.3965 242.789 32.916C242.132 32.4238 240.978 32.002 239.326 31.6504C237.685 31.2988 236.379 30.877 235.406 30.3848C234.445 29.8926 233.73 29.3066 233.261 28.627C232.804 27.9473 232.576 27.1387 232.576 26.2012C232.576 24.6426 233.232 23.3242 234.545 22.2461C235.869 21.168 237.556 20.6289 239.607 20.6289C241.763 20.6289 243.509 21.1855 244.845 22.2988C246.193 23.4121 246.867 24.8359 246.867 26.5703H243.597C243.597 25.6797 243.216 24.9121 242.455 24.2676C241.705 23.623 240.755 23.3008 239.607 23.3008C238.423 23.3008 237.498 23.5586 236.83 24.0742C236.162 24.5898 235.828 25.2637 235.828 26.0957C235.828 26.8809 236.138 27.4727 236.759 27.8711C237.38 28.2695 238.5 28.6504 240.117 29.0137C241.746 29.377 243.064 29.8105 244.072 30.3145C245.08 30.8184 245.824 31.4277 246.304 32.1426C246.796 32.8457 247.043 33.707 247.043 34.7266C247.043 36.4258 246.363 37.791 245.004 38.8223C243.644 39.8418 241.88 40.3516 239.712 40.3516C238.189 40.3516 236.841 40.082 235.67 39.543C234.498 39.0039 233.578 38.2539 232.91 37.293C232.254 36.3203 231.925 35.2715 231.925 34.1465H235.177C235.236 35.2363 235.67 36.1035 236.478 36.748C237.298 37.3809 238.377 37.6973 239.712 37.6973C240.943 37.6973 241.927 37.4512 242.666 36.959C243.416 36.4551 243.791 35.7871 243.791 34.9551ZM257.491 16.375V20.9805H261.042V23.4941H257.491V35.2891C257.491 36.0508 257.649 36.625 257.966 37.0117C258.282 37.3867 258.821 37.5742 259.583 37.5742C259.958 37.5742 260.473 37.5039 261.13 37.3633V40C260.274 40.2344 259.442 40.3516 258.634 40.3516C257.18 40.3516 256.085 39.9121 255.346 39.0332C254.608 38.1543 254.239 36.9062 254.239 35.2891V23.4941H250.776V20.9805H254.239V16.375H257.491Z" fill="#7619D2"/>
<path d="M104.645 46.6621V45.8906H99.3711V46.6621H101.568V53H102.447V46.6621H104.645ZM109.337 53H110.157V47.7168H109.249V51.5059C109.2 51.6198 109.138 51.7256 109.063 51.8232C108.992 51.9176 108.907 51.999 108.81 52.0674C108.692 52.152 108.554 52.2188 108.395 52.2676C108.235 52.3132 108.054 52.3359 107.853 52.3359C107.68 52.3359 107.527 52.3132 107.394 52.2676C107.263 52.222 107.153 52.1423 107.062 52.0283C106.97 51.9176 106.902 51.7679 106.856 51.5791C106.811 51.3903 106.788 51.1527 106.788 50.8662V47.7168H105.885V50.8564C105.885 51.2503 105.927 51.5889 106.012 51.8721C106.1 52.152 106.223 52.3831 106.383 52.5654C106.542 52.7477 106.734 52.8828 106.959 52.9707C107.184 53.0553 107.434 53.0977 107.711 53.0977C108.056 53.0977 108.36 53.026 108.624 52.8828C108.888 52.7363 109.107 52.5329 109.283 52.2725L109.337 53ZM115.372 51.5986C115.372 51.6833 115.356 51.763 115.323 51.8379C115.291 51.9128 115.243 51.9811 115.182 52.043C115.081 52.1439 114.941 52.2236 114.762 52.2822C114.583 52.3376 114.373 52.3652 114.132 52.3652C113.979 52.3652 113.824 52.349 113.668 52.3164C113.512 52.2839 113.37 52.2285 113.243 52.1504C113.113 52.0723 113.004 51.9697 112.916 51.8428C112.831 51.7158 112.783 51.5596 112.77 51.374H111.866C111.866 51.5986 111.917 51.8151 112.018 52.0234C112.122 52.2318 112.271 52.4141 112.467 52.5703C112.659 52.7298 112.895 52.8584 113.175 52.9561C113.455 53.0505 113.774 53.0977 114.132 53.0977C114.444 53.0977 114.732 53.0602 114.996 52.9854C115.26 52.9105 115.486 52.8047 115.675 52.668C115.864 52.5312 116.01 52.3669 116.114 52.1748C116.222 51.9827 116.275 51.7695 116.275 51.5352C116.275 51.3171 116.228 51.125 116.134 50.959C116.043 50.793 115.909 50.6465 115.733 50.5195C115.558 50.3958 115.341 50.29 115.084 50.2021C114.827 50.111 114.535 50.0312 114.21 49.9629C113.963 49.9141 113.757 49.8636 113.595 49.8115C113.435 49.7594 113.308 49.7008 113.214 49.6357C113.116 49.5706 113.048 49.4974 113.009 49.416C112.97 49.3346 112.95 49.2419 112.95 49.1377C112.95 49.0368 112.975 48.9391 113.023 48.8447C113.072 48.7503 113.146 48.6673 113.243 48.5957C113.338 48.5241 113.456 48.4671 113.6 48.4248C113.746 48.3825 113.915 48.3613 114.107 48.3613C114.293 48.3613 114.459 48.3874 114.605 48.4395C114.755 48.4915 114.882 48.5599 114.986 48.6445C115.09 48.7292 115.172 48.8268 115.23 48.9375C115.289 49.0449 115.318 49.1556 115.318 49.2695H116.222C116.222 49.0384 116.171 48.8236 116.07 48.625C115.973 48.4232 115.833 48.2474 115.65 48.0977C115.468 47.9479 115.247 47.8307 114.986 47.7461C114.726 47.6615 114.433 47.6191 114.107 47.6191C113.805 47.6191 113.526 47.6598 113.272 47.7412C113.022 47.8226 112.805 47.9333 112.623 48.0732C112.441 48.2132 112.299 48.3776 112.198 48.5664C112.097 48.752 112.047 48.9521 112.047 49.167C112.047 49.3851 112.096 49.5771 112.193 49.7432C112.291 49.9059 112.429 50.0475 112.608 50.168C112.784 50.2917 112.996 50.3975 113.243 50.4854C113.494 50.5732 113.771 50.6481 114.073 50.71C114.321 50.7588 114.527 50.8141 114.693 50.876C114.859 50.9346 114.993 50.9997 115.094 51.0713C115.195 51.1429 115.266 51.2227 115.309 51.3105C115.351 51.3952 115.372 51.4912 115.372 51.5986ZM123.868 55.0312H124.771V52.4922C124.837 52.5638 124.907 52.6305 124.981 52.6924C125.056 52.751 125.136 52.8047 125.221 52.8535C125.361 52.9316 125.517 52.9919 125.689 53.0342C125.865 53.0765 126.054 53.0977 126.256 53.0977C126.588 53.0977 126.882 53.0293 127.14 52.8926C127.4 52.7559 127.618 52.5671 127.794 52.3262C127.97 52.0853 128.103 51.8021 128.194 51.4766C128.285 51.1478 128.331 50.7946 128.331 50.417V50.3145C128.331 49.9206 128.285 49.5592 128.194 49.2305C128.103 48.8984 127.97 48.6136 127.794 48.376C127.618 48.1383 127.4 47.9528 127.14 47.8193C126.879 47.6859 126.58 47.6191 126.241 47.6191C126.049 47.6191 125.868 47.6403 125.699 47.6826C125.533 47.7217 125.382 47.7803 125.245 47.8584C125.147 47.9105 125.056 47.974 124.972 48.0488C124.887 48.1204 124.809 48.2018 124.737 48.293L124.693 47.7168H123.868V55.0312ZM127.428 50.3145V50.417C127.428 50.6742 127.398 50.9199 127.34 51.1543C127.285 51.3887 127.198 51.5954 127.081 51.7744C126.964 51.9535 126.814 52.0967 126.632 52.2041C126.45 52.3083 126.233 52.3604 125.982 52.3604C125.826 52.3604 125.683 52.3408 125.553 52.3018C125.426 52.2627 125.31 52.209 125.206 52.1406C125.115 52.082 125.034 52.0104 124.962 51.9258C124.89 51.8411 124.827 51.75 124.771 51.6523V49.1084C124.833 48.9977 124.905 48.8968 124.986 48.8057C125.068 48.7145 125.16 48.638 125.265 48.5762C125.359 48.5143 125.465 48.4671 125.582 48.4346C125.702 48.402 125.833 48.3857 125.973 48.3857C126.227 48.3857 126.445 48.4378 126.627 48.542C126.809 48.6462 126.961 48.7861 127.081 48.9619C127.198 49.141 127.285 49.3477 127.34 49.582C127.398 49.8132 127.428 50.0573 127.428 50.3145ZM132.213 53.0977C132.727 53.0977 133.159 52.9951 133.507 52.79C133.858 52.5817 134.122 52.3441 134.298 52.0771L133.746 51.6475C133.58 51.8623 133.372 52.0348 133.121 52.165C132.87 52.2952 132.584 52.3604 132.262 52.3604C132.018 52.3604 131.795 52.3148 131.593 52.2236C131.391 52.1325 131.218 52.0072 131.075 51.8477C130.935 51.6979 130.825 51.5254 130.743 51.3301C130.665 51.1348 130.615 50.9085 130.592 50.6514V50.6172H134.366V50.2119C134.366 49.8441 134.319 49.5023 134.225 49.1865C134.133 48.8708 133.993 48.5957 133.805 48.3613C133.616 48.1302 133.378 47.9495 133.092 47.8193C132.809 47.6859 132.477 47.6191 132.096 47.6191C131.793 47.6191 131.497 47.681 131.207 47.8047C130.921 47.9284 130.665 48.1058 130.44 48.3369C130.213 48.5713 130.03 48.8577 129.894 49.1963C129.757 49.5316 129.688 49.9124 129.688 50.3389V50.5439C129.688 50.9118 129.75 51.252 129.874 51.5645C129.998 51.877 130.17 52.1471 130.392 52.375C130.613 52.6029 130.878 52.7803 131.188 52.9072C131.5 53.0342 131.842 53.0977 132.213 53.0977ZM132.096 48.3613C132.327 48.3613 132.525 48.4036 132.691 48.4883C132.861 48.5729 133.001 48.6836 133.111 48.8203C133.222 48.957 133.308 49.1198 133.37 49.3086C133.432 49.4941 133.463 49.6683 133.463 49.8311V49.875H130.621C130.657 49.6309 130.719 49.416 130.807 49.2305C130.898 49.0417 131.008 48.8822 131.139 48.752C131.269 48.625 131.415 48.529 131.578 48.4639C131.741 48.3955 131.913 48.3613 132.096 48.3613ZM135.714 50.3145V50.417C135.714 50.7946 135.764 51.1478 135.865 51.4766C135.966 51.8021 136.108 52.0853 136.29 52.3262C136.472 52.5671 136.692 52.7559 136.949 52.8926C137.21 53.0293 137.499 53.0977 137.818 53.0977C138.144 53.0977 138.429 53.0423 138.673 52.9316C138.917 52.821 139.127 52.6582 139.303 52.4434L139.342 53H140.172V45.5H139.269V48.2393C139.096 48.0374 138.891 47.8844 138.653 47.7803C138.419 47.6729 138.144 47.6191 137.828 47.6191C137.506 47.6191 137.215 47.6859 136.954 47.8193C136.694 47.9528 136.472 48.1383 136.29 48.376C136.104 48.6136 135.961 48.8984 135.86 49.2305C135.763 49.5592 135.714 49.9206 135.714 50.3145ZM136.617 50.417V50.3145C136.617 50.0573 136.645 49.8132 136.7 49.582C136.756 49.3477 136.842 49.141 136.959 48.9619C137.073 48.7861 137.219 48.6462 137.398 48.542C137.581 48.4378 137.799 48.3857 138.053 48.3857C138.349 48.3857 138.596 48.4557 138.795 48.5957C138.993 48.7324 139.151 48.9082 139.269 49.123V51.5742C139.151 51.8053 138.993 51.9893 138.795 52.126C138.596 52.2627 138.346 52.3311 138.043 52.3311C137.792 52.3311 137.577 52.2806 137.398 52.1797C137.219 52.0755 137.073 51.9355 136.959 51.7598C136.842 51.584 136.756 51.3805 136.7 51.1494C136.645 50.9183 136.617 50.6742 136.617 50.417ZM142.032 47.7168V48.5029H143.829V52.2188H142.032V53H146.456V52.2188H144.732V47.7168H142.032ZM143.712 46.3301C143.712 46.4766 143.756 46.5986 143.844 46.6963C143.935 46.7939 144.072 46.8428 144.254 46.8428C144.433 46.8428 144.568 46.7939 144.659 46.6963C144.75 46.5986 144.796 46.4766 144.796 46.3301C144.796 46.2487 144.783 46.1738 144.757 46.1055C144.731 46.0371 144.692 45.9801 144.64 45.9346C144.597 45.8923 144.544 45.8597 144.479 45.8369C144.413 45.8109 144.339 45.7979 144.254 45.7979C144.169 45.7979 144.093 45.8109 144.024 45.8369C143.959 45.8597 143.906 45.8923 143.863 45.9346C143.811 45.9834 143.772 46.042 143.746 46.1104C143.723 46.1787 143.712 46.252 143.712 46.3301ZM147.726 50.3145V50.417C147.726 50.7946 147.776 51.1478 147.877 51.4766C147.978 51.8021 148.119 52.0853 148.302 52.3262C148.484 52.5671 148.704 52.7559 148.961 52.8926C149.221 53.0293 149.511 53.0977 149.83 53.0977C150.156 53.0977 150.44 53.0423 150.685 52.9316C150.929 52.821 151.139 52.6582 151.314 52.4434L151.354 53H152.184V45.5H151.28V48.2393C151.108 48.0374 150.903 47.8844 150.665 47.7803C150.431 47.6729 150.156 47.6191 149.84 47.6191C149.518 47.6191 149.226 47.6859 148.966 47.8193C148.705 47.9528 148.484 48.1383 148.302 48.376C148.116 48.6136 147.973 48.8984 147.872 49.2305C147.774 49.5592 147.726 49.9206 147.726 50.3145ZM148.629 50.417V50.3145C148.629 50.0573 148.657 49.8132 148.712 49.582C148.767 49.3477 148.854 49.141 148.971 48.9619C149.085 48.7861 149.231 48.6462 149.41 48.542C149.592 48.4378 149.811 48.3857 150.064 48.3857C150.361 48.3857 150.608 48.4557 150.807 48.5957C151.005 48.7324 151.163 48.9082 151.28 49.123V51.5742C151.163 51.8053 151.005 51.9893 150.807 52.126C150.608 52.2627 150.357 52.3311 150.055 52.3311C149.804 52.3311 149.589 52.2806 149.41 52.1797C149.231 52.0755 149.085 51.9355 148.971 51.7598C148.854 51.584 148.767 51.3805 148.712 51.1494C148.657 50.9183 148.629 50.6742 148.629 50.417ZM153.648 50.3096V50.417C153.648 50.7979 153.704 51.151 153.814 51.4766C153.925 51.8021 154.085 52.0853 154.293 52.3262C154.498 52.5671 154.749 52.7559 155.045 52.8926C155.344 53.0293 155.681 53.0977 156.056 53.0977C156.427 53.0977 156.76 53.0293 157.057 52.8926C157.353 52.7559 157.605 52.5671 157.813 52.3262C158.019 52.0853 158.176 51.8021 158.287 51.4766C158.398 51.151 158.453 50.7979 158.453 50.417V50.3096C158.453 49.9287 158.398 49.5755 158.287 49.25C158.176 48.9212 158.019 48.6364 157.813 48.3955C157.605 48.1546 157.351 47.9658 157.052 47.8291C156.756 47.6891 156.42 47.6191 156.046 47.6191C155.675 47.6191 155.341 47.6891 155.045 47.8291C154.749 47.9658 154.498 48.1546 154.293 48.3955C154.085 48.6364 153.925 48.9212 153.814 49.25C153.704 49.5755 153.648 49.9287 153.648 50.3096ZM154.552 50.417V50.3096C154.552 50.0524 154.583 49.8066 154.645 49.5723C154.706 49.3346 154.801 49.1263 154.928 48.9473C155.051 48.7682 155.206 48.6266 155.392 48.5225C155.577 48.415 155.795 48.3613 156.046 48.3613C156.297 48.3613 156.515 48.415 156.7 48.5225C156.889 48.6266 157.047 48.7682 157.174 48.9473C157.298 49.1263 157.39 49.3346 157.452 49.5723C157.517 49.8066 157.55 50.0524 157.55 50.3096V50.417C157.55 50.6774 157.519 50.9264 157.457 51.1641C157.395 51.3984 157.302 51.6051 157.179 51.7842C157.052 51.9632 156.894 52.1048 156.705 52.209C156.52 52.3132 156.303 52.3652 156.056 52.3652C155.805 52.3652 155.585 52.3132 155.396 52.209C155.208 52.1048 155.051 51.9632 154.928 51.7842C154.801 51.6051 154.706 51.3984 154.645 51.1641C154.583 50.9264 154.552 50.6774 154.552 50.417ZM163.419 51.5986C163.419 51.6833 163.403 51.763 163.37 51.8379C163.338 51.9128 163.29 51.9811 163.229 52.043C163.128 52.1439 162.988 52.2236 162.809 52.2822C162.63 52.3376 162.42 52.3652 162.179 52.3652C162.026 52.3652 161.871 52.349 161.715 52.3164C161.559 52.2839 161.417 52.2285 161.29 52.1504C161.16 52.0723 161.051 51.9697 160.963 51.8428C160.878 51.7158 160.829 51.5596 160.816 51.374H159.913C159.913 51.5986 159.964 51.8151 160.064 52.0234C160.169 52.2318 160.318 52.4141 160.514 52.5703C160.706 52.7298 160.942 52.8584 161.222 52.9561C161.502 53.0505 161.821 53.0977 162.179 53.0977C162.491 53.0977 162.779 53.0602 163.043 52.9854C163.307 52.9105 163.533 52.8047 163.722 52.668C163.91 52.5312 164.057 52.3669 164.161 52.1748C164.269 51.9827 164.322 51.7695 164.322 51.5352C164.322 51.3171 164.275 51.125 164.181 50.959C164.09 50.793 163.956 50.6465 163.78 50.5195C163.604 50.3958 163.388 50.29 163.131 50.2021C162.874 50.111 162.582 50.0312 162.257 49.9629C162.009 49.9141 161.804 49.8636 161.642 49.8115C161.482 49.7594 161.355 49.7008 161.261 49.6357C161.163 49.5706 161.095 49.4974 161.056 49.416C161.017 49.3346 160.997 49.2419 160.997 49.1377C160.997 49.0368 161.021 48.9391 161.07 48.8447C161.119 48.7503 161.192 48.6673 161.29 48.5957C161.384 48.5241 161.503 48.4671 161.646 48.4248C161.793 48.3825 161.962 48.3613 162.154 48.3613C162.34 48.3613 162.506 48.3874 162.652 48.4395C162.802 48.4915 162.929 48.5599 163.033 48.6445C163.137 48.7292 163.219 48.8268 163.277 48.9375C163.336 49.0449 163.365 49.1556 163.365 49.2695H164.269C164.269 49.0384 164.218 48.8236 164.117 48.625C164.02 48.4232 163.88 48.2474 163.697 48.0977C163.515 47.9479 163.294 47.8307 163.033 47.7461C162.773 47.6615 162.48 47.6191 162.154 47.6191C161.852 47.6191 161.573 47.6598 161.319 47.7412C161.069 47.8226 160.852 47.9333 160.67 48.0732C160.488 48.2132 160.346 48.3776 160.245 48.5664C160.144 48.752 160.094 48.9521 160.094 49.167C160.094 49.3851 160.143 49.5771 160.24 49.7432C160.338 49.9059 160.476 50.0475 160.655 50.168C160.831 50.2917 161.043 50.3975 161.29 50.4854C161.541 50.5732 161.817 50.6481 162.12 50.71C162.368 50.7588 162.574 50.8141 162.74 50.876C162.906 50.9346 163.04 50.9997 163.141 51.0713C163.242 51.1429 163.313 51.2227 163.355 51.3105C163.398 51.3952 163.419 51.4912 163.419 51.5986ZM171.749 50.3145V50.417C171.749 50.7946 171.799 51.1478 171.9 51.4766C172.001 51.8021 172.143 52.0853 172.325 52.3262C172.507 52.5671 172.727 52.7559 172.984 52.8926C173.245 53.0293 173.535 53.0977 173.854 53.0977C174.179 53.0977 174.464 53.0423 174.708 52.9316C174.952 52.821 175.162 52.6582 175.338 52.4434L175.377 53H176.207V45.5H175.304V48.2393C175.131 48.0374 174.926 47.8844 174.688 47.7803C174.454 47.6729 174.179 47.6191 173.863 47.6191C173.541 47.6191 173.25 47.6859 172.989 47.8193C172.729 47.9528 172.507 48.1383 172.325 48.376C172.14 48.6136 171.996 48.8984 171.896 49.2305C171.798 49.5592 171.749 49.9206 171.749 50.3145ZM172.652 50.417V50.3145C172.652 50.0573 172.68 49.8132 172.735 49.582C172.791 49.3477 172.877 49.141 172.994 48.9619C173.108 48.7861 173.255 48.6462 173.434 48.542C173.616 48.4378 173.834 48.3857 174.088 48.3857C174.384 48.3857 174.632 48.4557 174.83 48.5957C175.029 48.7324 175.187 48.9082 175.304 49.123V51.5742C175.187 51.8053 175.029 51.9893 174.83 52.126C174.632 52.2627 174.381 52.3311 174.078 52.3311C173.827 52.3311 173.613 52.2806 173.434 52.1797C173.255 52.0755 173.108 51.9355 172.994 51.7598C172.877 51.584 172.791 51.3805 172.735 51.1494C172.68 50.9183 172.652 50.6742 172.652 50.417ZM180.26 53.0977C180.774 53.0977 181.205 52.9951 181.554 52.79C181.905 52.5817 182.169 52.3441 182.345 52.0771L181.793 51.6475C181.627 51.8623 181.419 52.0348 181.168 52.165C180.917 52.2952 180.631 52.3604 180.309 52.3604C180.064 52.3604 179.841 52.3148 179.64 52.2236C179.438 52.1325 179.265 52.0072 179.122 51.8477C178.982 51.6979 178.871 51.5254 178.79 51.3301C178.712 51.1348 178.661 50.9085 178.639 50.6514V50.6172H182.413V50.2119C182.413 49.8441 182.366 49.5023 182.271 49.1865C182.18 48.8708 182.04 48.5957 181.852 48.3613C181.663 48.1302 181.425 47.9495 181.139 47.8193C180.855 47.6859 180.523 47.6191 180.143 47.6191C179.84 47.6191 179.544 47.681 179.254 47.8047C178.967 47.9284 178.712 48.1058 178.487 48.3369C178.259 48.5713 178.077 48.8577 177.94 49.1963C177.804 49.5316 177.735 49.9124 177.735 50.3389V50.5439C177.735 50.9118 177.797 51.252 177.921 51.5645C178.045 51.877 178.217 52.1471 178.438 52.375C178.66 52.6029 178.925 52.7803 179.234 52.9072C179.547 53.0342 179.889 53.0977 180.26 53.0977ZM180.143 48.3613C180.374 48.3613 180.572 48.4036 180.738 48.4883C180.908 48.5729 181.048 48.6836 181.158 48.8203C181.269 48.957 181.355 49.1198 181.417 49.3086C181.479 49.4941 181.51 49.6683 181.51 49.8311V49.875H178.668C178.704 49.6309 178.766 49.416 178.854 49.2305C178.945 49.0417 179.055 48.8822 179.186 48.752C179.316 48.625 179.462 48.529 179.625 48.4639C179.788 48.3955 179.96 48.3613 180.143 48.3613ZM192.188 52.3652C191.905 52.3652 191.668 52.3099 191.476 52.1992C191.287 52.0853 191.135 51.9372 191.021 51.7549C190.904 51.5758 190.82 51.374 190.768 51.1494C190.719 50.9215 190.694 50.6921 190.694 50.4609V50.2559C190.694 50.028 190.719 49.8018 190.768 49.5771C190.82 49.3525 190.904 49.1491 191.021 48.9668C191.139 48.7878 191.292 48.6429 191.48 48.5322C191.673 48.4183 191.909 48.3613 192.188 48.3613C192.371 48.3613 192.54 48.3923 192.696 48.4541C192.856 48.516 192.993 48.6006 193.106 48.708C193.22 48.8154 193.31 48.9408 193.375 49.084C193.443 49.224 193.479 49.3737 193.482 49.5332H194.337C194.337 49.2663 194.283 49.0156 194.176 48.7812C194.068 48.5469 193.92 48.3434 193.731 48.1709C193.539 48.0016 193.312 47.8682 193.048 47.7705C192.787 47.6696 192.501 47.6191 192.188 47.6191C191.788 47.6191 191.438 47.6908 191.139 47.834C190.839 47.9772 190.59 48.1693 190.392 48.4102C190.19 48.6543 190.038 48.9359 189.938 49.2549C189.837 49.5739 189.786 49.9076 189.786 50.2559V50.4609C189.786 50.8125 189.837 51.1478 189.938 51.4668C190.038 51.7826 190.19 52.0609 190.392 52.3018C190.59 52.5459 190.839 52.7396 191.139 52.8828C191.438 53.026 191.788 53.0977 192.188 53.0977C192.468 53.0977 192.737 53.0505 192.994 52.9561C193.251 52.8584 193.479 52.7282 193.678 52.5654C193.876 52.4059 194.034 52.2204 194.151 52.0088C194.272 51.7939 194.334 51.5693 194.337 51.335H193.482C193.479 51.4814 193.44 51.6182 193.365 51.7451C193.294 51.8688 193.198 51.9762 193.077 52.0674C192.957 52.1618 192.818 52.235 192.662 52.2871C192.509 52.3392 192.351 52.3652 192.188 52.3652ZM199.415 53H200.357V52.9219C200.299 52.7754 200.253 52.6045 200.221 52.4092C200.188 52.2106 200.172 52.0234 200.172 51.8477V49.3916C200.172 49.0954 200.118 48.8366 200.011 48.6152C199.903 48.3939 199.757 48.2083 199.571 48.0586C199.382 47.9121 199.16 47.8031 198.902 47.7314C198.645 47.6566 198.367 47.6191 198.067 47.6191C197.739 47.6191 197.444 47.6647 197.184 47.7559C196.926 47.847 196.708 47.9658 196.529 48.1123C196.347 48.262 196.207 48.4297 196.109 48.6152C196.015 48.8008 195.966 48.9896 195.963 49.1816H196.871C196.871 49.071 196.897 48.9652 196.949 48.8643C197.005 48.7601 197.081 48.6706 197.179 48.5957C197.276 48.5208 197.395 48.4606 197.535 48.415C197.678 48.3695 197.84 48.3467 198.019 48.3467C198.211 48.3467 198.383 48.3711 198.536 48.4199C198.692 48.4688 198.824 48.5371 198.932 48.625C199.039 48.7161 199.122 48.8252 199.181 48.9521C199.239 49.0791 199.269 49.2223 199.269 49.3818V49.7969H198.282C197.914 49.7969 197.581 49.8327 197.281 49.9043C196.985 49.9759 196.731 50.0833 196.52 50.2266C196.308 50.373 196.144 50.5553 196.026 50.7734C195.912 50.9915 195.855 51.2454 195.855 51.5352C195.855 51.7565 195.898 51.9632 195.982 52.1553C196.07 52.3441 196.194 52.5068 196.354 52.6436C196.51 52.7835 196.7 52.8942 196.925 52.9756C197.153 53.057 197.407 53.0977 197.687 53.0977C197.859 53.0977 198.022 53.0798 198.175 53.0439C198.328 53.0081 198.473 52.9593 198.609 52.8975C198.743 52.8356 198.865 52.764 198.976 52.6826C199.09 52.6012 199.192 52.515 199.283 52.4238C199.293 52.5345 199.308 52.6419 199.327 52.7461C199.35 52.847 199.379 52.9316 199.415 53ZM197.818 52.3115C197.643 52.3115 197.488 52.2887 197.354 52.2432C197.221 52.1976 197.11 52.1341 197.022 52.0527C196.935 51.9746 196.868 51.8802 196.822 51.7695C196.78 51.6589 196.759 51.5384 196.759 51.4082C196.759 51.2715 196.783 51.1494 196.832 51.042C196.884 50.9346 196.959 50.8418 197.057 50.7637C197.193 50.653 197.377 50.5716 197.608 50.5195C197.843 50.4642 198.116 50.4365 198.429 50.4365H199.269V51.5059C199.216 51.61 199.145 51.7109 199.054 51.8086C198.963 51.903 198.855 51.9876 198.731 52.0625C198.604 52.1374 198.465 52.1976 198.312 52.2432C198.159 52.2887 197.994 52.3115 197.818 52.3115ZM202.091 45.5V46.2861H203.888V52.2188H202.091V53H206.515V52.2188H204.791V45.5H202.091ZM208.097 47.7168V48.5029H209.894V52.2188H208.097V53H212.521V52.2188H210.797V47.7168H208.097ZM209.776 46.3301C209.776 46.4766 209.82 46.5986 209.908 46.6963C209.999 46.7939 210.136 46.8428 210.318 46.8428C210.497 46.8428 210.632 46.7939 210.724 46.6963C210.815 46.5986 210.86 46.4766 210.86 46.3301C210.86 46.2487 210.847 46.1738 210.821 46.1055C210.795 46.0371 210.756 45.9801 210.704 45.9346C210.662 45.8923 210.608 45.8597 210.543 45.8369C210.478 45.8109 210.403 45.7979 210.318 45.7979C210.234 45.7979 210.157 45.8109 210.089 45.8369C210.024 45.8597 209.97 45.8923 209.928 45.9346C209.876 45.9834 209.837 46.042 209.811 46.1104C209.788 46.1787 209.776 46.252 209.776 46.3301ZM213.79 50.3145V50.417C213.79 50.7946 213.84 51.1478 213.941 51.4766C214.042 51.8021 214.184 52.0853 214.366 52.3262C214.549 52.5671 214.768 52.7559 215.025 52.8926C215.286 53.0293 215.576 53.0977 215.895 53.0977C216.22 53.0977 216.505 53.0423 216.749 52.9316C216.993 52.821 217.203 52.6582 217.379 52.4434L217.418 53H218.248V45.5H217.345V48.2393C217.172 48.0374 216.967 47.8844 216.729 47.7803C216.495 47.6729 216.22 47.6191 215.904 47.6191C215.582 47.6191 215.291 47.6859 215.03 47.8193C214.77 47.9528 214.549 48.1383 214.366 48.376C214.181 48.6136 214.037 48.8984 213.937 49.2305C213.839 49.5592 213.79 49.9206 213.79 50.3145ZM214.693 50.417V50.3145C214.693 50.0573 214.721 49.8132 214.776 49.582C214.832 49.3477 214.918 49.141 215.035 48.9619C215.149 48.7861 215.296 48.6462 215.475 48.542C215.657 48.4378 215.875 48.3857 216.129 48.3857C216.425 48.3857 216.673 48.4557 216.871 48.5957C217.07 48.7324 217.228 48.9082 217.345 49.123V51.5742C217.228 51.8053 217.07 51.9893 216.871 52.126C216.673 52.2627 216.422 52.3311 216.119 52.3311C215.868 52.3311 215.654 52.2806 215.475 52.1797C215.296 52.0755 215.149 51.9355 215.035 51.7598C214.918 51.584 214.832 51.3805 214.776 51.1494C214.721 50.9183 214.693 50.6742 214.693 50.417ZM223.438 53H224.381V52.9219C224.322 52.7754 224.277 52.6045 224.244 52.4092C224.212 52.2106 224.195 52.0234 224.195 51.8477V49.3916C224.195 49.0954 224.142 48.8366 224.034 48.6152C223.927 48.3939 223.78 48.2083 223.595 48.0586C223.406 47.9121 223.183 47.8031 222.926 47.7314C222.669 47.6566 222.39 47.6191 222.091 47.6191C221.762 47.6191 221.467 47.6647 221.207 47.7559C220.95 47.847 220.732 47.9658 220.553 48.1123C220.37 48.262 220.23 48.4297 220.133 48.6152C220.038 48.8008 219.99 48.9896 219.986 49.1816H220.895C220.895 49.071 220.921 48.9652 220.973 48.8643C221.028 48.7601 221.104 48.6706 221.202 48.5957C221.3 48.5208 221.419 48.4606 221.559 48.415C221.702 48.3695 221.863 48.3467 222.042 48.3467C222.234 48.3467 222.407 48.3711 222.56 48.4199C222.716 48.4688 222.848 48.5371 222.955 48.625C223.062 48.7161 223.146 48.8252 223.204 48.9521C223.263 49.0791 223.292 49.2223 223.292 49.3818V49.7969H222.306C221.938 49.7969 221.604 49.8327 221.305 49.9043C221.008 49.9759 220.755 50.0833 220.543 50.2266C220.331 50.373 220.167 50.5553 220.05 50.7734C219.936 50.9915 219.879 51.2454 219.879 51.5352C219.879 51.7565 219.921 51.9632 220.006 52.1553C220.094 52.3441 220.217 52.5068 220.377 52.6436C220.533 52.7835 220.724 52.8942 220.948 52.9756C221.176 53.057 221.43 53.0977 221.71 53.0977C221.882 53.0977 222.045 53.0798 222.198 53.0439C222.351 53.0081 222.496 52.9593 222.633 52.8975C222.766 52.8356 222.888 52.764 222.999 52.6826C223.113 52.6012 223.215 52.515 223.307 52.4238C223.316 52.5345 223.331 52.6419 223.351 52.7461C223.373 52.847 223.403 52.9316 223.438 53ZM221.842 52.3115C221.666 52.3115 221.511 52.2887 221.378 52.2432C221.244 52.1976 221.134 52.1341 221.046 52.0527C220.958 51.9746 220.891 51.8802 220.846 51.7695C220.803 51.6589 220.782 51.5384 220.782 51.4082C220.782 51.2715 220.807 51.1494 220.855 51.042C220.908 50.9346 220.982 50.8418 221.08 50.7637C221.217 50.653 221.401 50.5716 221.632 50.5195C221.866 50.4642 222.14 50.4365 222.452 50.4365H223.292V51.5059C223.24 51.61 223.168 51.7109 223.077 51.8086C222.986 51.903 222.879 51.9876 222.755 52.0625C222.628 52.1374 222.488 52.1976 222.335 52.2432C222.182 52.2887 222.018 52.3115 221.842 52.3115ZM225.802 50.3145V50.417C225.802 50.7946 225.852 51.1478 225.953 51.4766C226.054 51.8021 226.196 52.0853 226.378 52.3262C226.56 52.5671 226.78 52.7559 227.037 52.8926C227.298 53.0293 227.587 53.0977 227.906 53.0977C228.232 53.0977 228.517 53.0423 228.761 52.9316C229.005 52.821 229.215 52.6582 229.391 52.4434L229.43 53H230.26V45.5H229.356V48.2393C229.184 48.0374 228.979 47.8844 228.741 47.7803C228.507 47.6729 228.232 47.6191 227.916 47.6191C227.594 47.6191 227.302 47.6859 227.042 47.8193C226.782 47.9528 226.56 48.1383 226.378 48.376C226.192 48.6136 226.049 48.8984 225.948 49.2305C225.851 49.5592 225.802 49.9206 225.802 50.3145ZM226.705 50.417V50.3145C226.705 50.0573 226.733 49.8132 226.788 49.582C226.843 49.3477 226.93 49.141 227.047 48.9619C227.161 48.7861 227.307 48.6462 227.486 48.542C227.669 48.4378 227.887 48.3857 228.141 48.3857C228.437 48.3857 228.684 48.4557 228.883 48.5957C229.081 48.7324 229.239 48.9082 229.356 49.123V51.5742C229.239 51.8053 229.081 51.9893 228.883 52.126C228.684 52.2627 228.434 52.3311 228.131 52.3311C227.88 52.3311 227.665 52.2806 227.486 52.1797C227.307 52.0755 227.161 51.9355 227.047 51.7598C226.93 51.584 226.843 51.3805 226.788 51.1494C226.733 50.9183 226.705 50.6742 226.705 50.417Z" fill="#7619D2"/>
</g>
<defs>
<clipPath id="clip0">
<rect width="286" height="70" fill="white"/>
</clipPath>
</defs>
</svg>
